/* XPM */
static char * gate1_xpm[] = {
"64 64 228 2",
"  	c #59627C",
". 	c #596789",
"+ 	c #5A6174",
"@ 	c #596585",
"# 	c #596991",
"$ 	c #59698D",
"% 	c #5B709D",
"& 	c #59678E",
"* 	c #585F71",
"= 	c #575A66",
"- 	c #5A5C63",
"; 	c #13396D",
"> 	c #164583",
", 	c #123463",
"' 	c #15417D",
") 	c #144077",
"! 	c #133C73",
"~ 	c #184A8C",
"{ 	c #174789",
"] 	c #17498A",
"^ 	c #194D92",
"/ 	c #153E79",
"( 	c #1B4889",
"_ 	c #215AA3",
": 	c #112E5A",
"< 	c #0B2343",
"[ 	c #071934",
"} 	c #284A82",
"| 	c #4C546B",
"1 	c #1B3562",
"2 	c #1A529B",
"3 	c #174D90",
"4 	c #194585",
"5 	c #1B3D72",
"6 	c #4A5776",
"7 	c #345D9B",
"8 	c #1D4071",
"9 	c #2B3B5C",
"0 	c #4C5264",
"a 	c #164887",
"b 	c #243454",
"c 	c #232A3B",
"d 	c #0A1B33",
"e 	c #415785",
"f 	c #777A82",
"g 	c #12366A",
"h 	c #2C416A",
"i 	c #446295",
"j 	c #244172",
"k 	c #4D515B",
"l 	c #75767B",
"m 	c #182F58",
"n 	c #414655",
"o 	c #38383A",
"p 	c #274477",
"q 	c #394768",
"r 	c #1B5196",
"s 	c #1A427C",
"t 	c #3A507F",
"u 	c #27579A",
"v 	c #1C3B6C",
"w 	c #273B61",
"x 	c #344363",
"y 	c #1C263C",
"z 	c #0E2E5A",
"A 	c #0B203E",
"B 	c #1F58A3",
"C 	c #1C335B",
"D 	c #1A2D4D",
"E 	c #0B192E",
"F 	c #354B76",
"G 	c #65676A",
"H 	c #21355B",
"I 	c #233A63",
"J 	c #656974",
"K 	c #375487",
"L 	c #193769",
"M 	c #3B4254",
"N 	c #0D366A",
"O 	c #333844",
"P 	c #2B2D34",
"Q 	c #11315E",
"R 	c #233D6B",
"S 	c #39445B",
"T 	c #163055",
"U 	c #28354D",
"V 	c #1C2A44",
"W 	c #171D2C",
"X 	c #122C54",
"Y 	c #253F70",
"Z 	c #1A2E52",
"` 	c #1A3866",
" .	c #06162A",
"..	c #1A2336",
"+.	c #2D3443",
"@.	c #393E4B",
"#.	c #44464B",
"$.	c #737374",
"%.	c #8B8B8C",
"&.	c #959699",
"*.	c #999A9E",
"=.	c #979AA1",
"-.	c #868788",
";.	c #676A75",
">.	c #8F9095",
",.	c #484C58",
"'.	c #151923",
").	c #0D1117",
"!.	c #171616",
"~.	c #333333",
"{.	c #6C6B6A",
"].	c #5D5D5C",
"^.	c #444444",
"/.	c #787876",
"(.	c #838383",
"_.	c #626262",
":.	c #615F60",
"<.	c #90908E",
"[.	c #585754",
"}.	c #595957",
"|.	c #292826",
"1.	c #7D7D7D",
"2.	c #605F5D",
"3.	c #61615F",
"4.	c #939395",
"5.	c #3C3C3C",
"6.	c #32312F",
"7.	c #4B4B4B",
"8.	c #09090B",
"9.	c #0A0C14",
"0.	c #1B1D25",
"a.	c #12141E",
"b.	c #131621",
"c.	c #0A0D1A",
"d.	c #040A17",
"e.	c #535354",
"f.	c #343538",
"g.	c #0E111D",
"h.	c #494946",
"i.	c #242529",
"j.	c #3C3D42",
"k.	c #1D1C1C",
"l.	c #0D2C54",
"m.	c #0E305D",
"n.	c #142745",
"o.	c #071424",
"p.	c #0C3364",
"q.	c #1C3156",
"r.	c #12223D",
"s.	c #20406F",
"t.	c #52596C",
"u.	c #525E7C",
"v.	c #2C3954",
"w.	c #13294C",
"x.	c #0A1E3B",
"y.	c #5D616C",
"z.	c #333A4C",
"A.	c #252932",
"B.	c #0B172B",
"C.	c #022A5D",
"D.	c #023165",
"E.	c #01265C",
"F.	c #012C63",
"G.	c #013472",
"H.	c #002E69",
"I.	c #00316B",
"J.	c #03264D",
"K.	c #022554",
"L.	c #2C354A",
"M.	c #454A5B",
"N.	c #7B7C83",
"O.	c #868A95",
"P.	c #8A8D95",
"Q.	c #8A8D99",
"R.	c #46526E",
"S.	c #343D53",
"T.	c #7C7F88",
"U.	c #7E828E",
"V.	c #6D707F",
"W.	c #312F32",
"X.	c #4D4E52",
"Y.	c #242423",
"Z.	c #0C0A03",
"`.	c #14120C",
" +	c #020101",
".+	c #090400",
"++	c #403F3D",
"@+	c #201D18",
"#+	c #2C2C2B",
"$+	c #515050",
"%+	c #120F06",
"&+	c #222D44",
"*+	c #0C264A",
"=+	c #273857",
"-+	c #132544",
";+	c #0D284D",
">+	c #696D7A",
",+	c #686F83",
"'+	c #3D6098",
")+	c #414A64",
"!+	c #2D323C",
"~+	c #1B549A",
"{+	c #525C76",
"]+	c #6E7488",
"^+	c #717786",
"/+	c #71778A",
"(+	c #727A91",
"_+	c #72788C",
":+	c #091425",
"<+	c #1E222A",
"[+	c #9D9EA3",
"}+	c #A1A2A5",
"|+	c #141005",
"1+	c #42413E",
"2+	c #23221E",
"3+	c #3E424E",
"4+	c #101E37",
"5+	c #0D3A73",
"6+	c #546282",
"7+	c #1C56A0",
"8+	c #0D386E",
"9+	c #51607E",
"0+	c #525F81",
"a+	c #54565B",
"b+	c #9FA0A5",
"c+	c #302F2E",
"d+	c #2F3034",
"e+	c #4F5052",
"  . + +   @ @ @ @ @ . # # . @ $ $ $ . . . # $ . . . . # @ @ $ %   + + +   . . @ @ @ . $ . @   $ @ @ @   @ $ $ & . . . .   * = - ",
"; > , , ; ' ' ) ! ! ' ~ { > ' ~ ] ~ ' > > ^ ] > ' > > ] ' / ( _ ! , , , ; > ' / ! ! ' ] ' ! ; { ' ' / ! ! ] ] > ' > > > ! : < [ ",
"! } | 1 ; > > / ! ! > 2 ] > > 3 3 ~ > ~ ] 2 3 4 > > ~ ~ ' 5 6 7 8 9 0 , ; a ] / ! ! a 3 ' ! ! ~ ] ' / ! / ^ 3 > > ] ~ > ! b c d ",
"5 e f 9 g ' > ' ! g > 2 ~ ] ] ^ ^ 3 > ~ ] 2 3 > ] ] ~ 3 > h f i j k l m g ] > / ; ; > ~ > ! g ~ ] ' ! ! ! ^ 3 ] ] ~ ~ > ; n o d ",
"; p q , , ' > ' ! ; > r ~ { ] 3 3 3 > ~ ] 2 ~ 4 ] { ~ 3 > s t u v w x , g > > ' ! ; > ~ ' / ; ~ > ' / ! ! 3 3 > ] ] ~ > ! b y d ",
"; > g g , ' ' / ! ! ' ~ ] > > ~ ] ~ > { > ^ { > > > ] ~ ' ' ~ _ ! g g g g > ' / ! ! ' > ' ! ; > > ' ! ! ! ] 3 > > > ] ' ; z A [ ",
"; ' g g , / / ! ! ! ' ] ( > ' > > ] > ' > ] 4 > ' ' > > ! / 4 B ! , g , , ' ! ! ! ! / ' / ! ! > / ! ! ! ! > 3 > ' ' > ' g : A [ ",
"g s w , , ! ! ! ; g ' ] > > / ' ' > > ' / > > > ' / / / ; ; p u ; C 9 , , ! ; ; ; ; ! ' ! ; ; ' ! ! ! ; ! > ] ' ' ' ' ! , D d E ",
", F G H , ; ; ; g g ! > ' ' ! / ' ' ' / ! ' / ' ' ! ! ! g I J K L M G m , ; ; g g N ! ! ; g g / ; ; ; g ; ' ' ' ' ! ! ; z O P E ",
"Q R S T z g g g g , ; ' ! ! ; ! ! / ! ; ! / ! ! ! g ; ; Q , x } , U M : : g g g g g ; ; g g g ! g g g , g / ! ! ! ; ; g : V W E ",
"z , X X : , C C I I R p R R I Y R R R I R p R R R R R R C 1 , s Q X X Z C R I I I I R R I I I R R I I I I R R R R v ` , : < E  .",
"..+.@.#.k - $.%.&.*.*.=.*.*.=.*.=.*.*.*.*.=.*.*.*.=.*.&.-.;.= 0 @.k - $.%.*.*.*.*.*.*.*.*.=.*.*.=.*.*.*.*.*.*.*.>.f * ,.@.P '.).",
"!.~.{.].~.o ^./.(._.:._._.%./._._._.$.<._._.].$.-.$.].].[.(.}.o |.^.1.2.[.]._.(.(._._.].1.-.G 3._.G 4.{._._.].1.(.}.5.6.6.7.|.8.",
"9.0.7.5.a.b.c.^.#.a.d.c.c.e.f.g.c.g.f.e.c.c.d.f.h.P d.c.a.e.f.0.).i.e.P c.c.g.^.^.d.d.d.5.7.0.c.c.i.e.i.c.c.d.j.h.i.g.a.a.f.k.8.",
"l.g m X : g , ` 1 m.g ; ; v , ; g ; g v g ! g L v , g ; , 1 ; s : l.T X Q g g ` 1 Q g g , 1 Q ; , , 1 Q , ; ; L ` g g g : n.[ o.",
"; ' p., ; ' ' / ! ! / ] ] > ' ] a ] ' > > ~ a > ' > > ] ' / ] u v , p., ; ' ' ! ! ! ' > ' ! ! > ' ' / ! ! ] ] > ' > > > ; z < [ ",
"! 4 x , ; > > / ! ! > r ~ { > 3 3 ~ > ] ] 2 ~ > > > ~ ~ ' ! F u ! C x , ; > > / ! ! a 3 ' / ! ~ ] ' ) ! ' 3 ~ > > ] ] > ; q.r.[ ",
"! e f 9 g > > ' ! ; > 2 ~ ] a ^ ^ 3 > 3 ~ 2 3 > ] ] ~ 3 > h f i s.k l C ; ] > / ! ; > 3 ' ! ; ~ ] ' ! ! ! ^ 3 > ] ~ ~ > ; n O d ",
"; } t.1 , ' > ' ! g > 2 ~ ] ] 3 ^ 3 > 3 { 2 3 > ] ~ ~ ^ > j u.7 v S t.Q g ] > ' ! ! > ~ ' / g ] > ' / ! ! 3 3 { ] ~ ~ > ! v.c d ",
"; ' p.g , ' ' / ! ! > 3 ] ] > 3 ~ ~ > ] ] r ] > ] > ] ~ ' ' ] B ! p.p., g > > / ! ! ' ] ' ! ; > > ' ! ! ! ~ 3 > > ] ] > ! z A [ ",
"; ' g g , ) ) ! ! ! ' ~ ] > > { > ~ > > > ~ > > > > > > / / ] B ! , g g , ' ' ! ! ! / ' / ! ! > / / ! ! ! > 3 { > > > ' g z A [ ",
"g ' ` , , ! ! ! ! ; ' ] > > ' ' ' { > ' / > ' > ' / ' ' ! ! s 2 ; Q 1 , p.! ! ! ; ! ! ' ! ! ; ' ! ! ! ; ! 4 ~ > ' ' > / , w.x.[ ",
"g F y.C , ! ; ; g g / > ' ' / ) ' > > ) ! ' ' ' ' ! ! ! g I + K L M y.T p.! ! ; g g ! / ! g g ' ; ! ; g ! > > ' ' ! / ! Q z.A.E ",
"Q h 0 T z g g g g g ! > ! / ! ! ! ' ! ! ! ' ! ! ! ; ; ; , C 0 } , z.k X m.; g g g g ; ! ; g g ! g g g , ; / / ! ! ! ! g : +.A.B.",
"z g l.l.C.D.C.C.E.E.F.G.H.H.F.I.I.I.H.F.H.G.H.H.H.F.H.H.C.C.z ' p.J.J.K.K.F.C.E.E.E.F.H.E.E.E.I.F.E.E.E.F.I.I.H.H.D.I.p.l.< E  .",
"V b L.M M.0 J N.O.P.Q.Q.Q.Q.Q.Q.Q.Q.Q.Q.Q.Q.Q.Q.Q.Q.Q.O.N.+ 0 R.S.M.k J T.P.Q.P.P.Q.Q.Q.Q.Q.P.Q.Q.P.P.Q.Q.Q.Q.O.U.V.t.M.z.c '.g.",
"k.~._.}.^.h.].(.4.(.1.N.1.*.-.1.1.1.-.*.1.N.1.-.4.(.1.1.{.1.}.^.W.7.$.G $.1.1.4.4.1.1.1.%.4.(.1.1.(.*.(.1.1.1.%.%.G X.j.f.^.Y.8.",
"Z.Y.].h.`.`.Z.7.[.`. + +.+3.++Z. +.+5.3..+ + +5.[.~. + +`.G ++@+`.#+_.o .+ +Z.e.$+ + + +^.}.k. + +|._.#+ + + +h.[.|.Z.%+k.^.k.8.",
"< X U &+*+X X =+=+w.X : : 9 q.: : : C 9 X Q : C 9 T : : X 9 C ` -+n.v.V *+X X =+=+;+l.: b v.D : X m 9 D X : : H 9 m : z *+y B.c.",
"g / p.Q g ) / ! ! ; ! { > ' / > > > / ' ' ] > ' ) ' ' > ! ! > r ; p.p., g ' ' ! ! ! ! ' / ! ; > ) / ! ; ! > > ' / ' ' ' g z x.E ",
"! > ` , ; > > ' / ; ' ^ ~ > > 3 ~ 3 > { ] 2 ~ > > > ] ~ ' ! } _ ! , 1 , ; > > ' ! ! > ~ ' / ! ~ > ' / ! ' 3 ~ > > ] ] > ; : A d ",
"! K >+H g > > ' ! ; > 2 ~ ] > ^ ^ 3 > ~ ] 2 ~ { { ] ~ 3 ' j ,+'+8 )+J Q ; a > ! ! ! a 3 > ! ; ~ ] ' ! ! / ^ 3 { ] ] ~ > ; M !+d ",
"! K >+H p.> > ' ! ; > 2 3 ] ] ^ 3 3 4 3 ] 2 3 > ] ] ~ 3 > j >+i 8 M.;.C g ] > ' ! ; > ~ ' / g ] ] ' / ; ! 3 3 ] ] ~ ~ > ! M !+d ",
"; ' , g , ' ' ' ! ; > ^ ~ ] > 3 ~ 3 > ~ ] 2 ~ > { > ~ 3 ' ' 4 ~+! Q Q , g a > / ! ! ' ] ' / ; { > ' ! ! ! ~ 3 > ] ] ] > ! l.x.[ ",
"; > g N , ' ' / ! ! ' ~ ~ > > ] ] ~ > > > ~ > > > > a ] ' ' ~ B ! g g g , ' ' ! ! ! / > ) ! ! > ' / ! ! ! ] ^ > > > { ' ; z < [ ",
"; ' p.g , / ! ! ! ! ' ] { > / > > ] > s ' ] > > ' / ' ' ! ! > 2 ; m.p.g , / ! ! ! ! / ' ! ! ! > ! ! ! ! ! > 3 > ' ' > / g l.x.[ ",
"g p | 1 , ! ! ; ; g ' { ' > / ' ' > > ' / > ' ' ' ! / ) g v {+u L 9 | Q , ! ! ; g ; ! / ! ; g ' ! ! ; g ; > > ' ' / ' ! Q U c E ",
", F y.q.Q g g g g g ! ' / ' ! / ! ' / ! ! ' / / / ! ! ! , C y.K , S.- X Q ; ; g g g ; ! ; g g / ; ; ; g ; ' ' / / ! ! ; z O A.E ",
"z , D l.z p.D.F.F.C.D.G.I.I.H.G.I.G.I.D.I.G.I.I.I.H.I.I.C.C.C ' p.w.D J.K.H.F.F.C.F.I.I.F.C.F.G.F.F.F.C.H.G.G.I.I.I.N p.l.-+E  .",
"D H b v.S )+t.>+]+^+/+(+/+/+/+_+_+_+/+^+_+(+_+/+/+/+_+]+;.| q F =+S S t.;./+/+^+^+^+/+_+/+^+^+_+/+/+^+^+/+_+_+]+,++ R.x v.V B.:+",
"<+!+e.e.X.}.;.%.*.4.4.4.4.[+*.4.&.4.*.}+4.4.4.*.*.&.4.>.(.1.- ,.o e.;.$.-.4.4.*.*.4.4.4.*.[+4.4.&.4.}+&.4.4.4.*.4.l - 7.j.j.0.9.",
"Z.Y.3.$+`.`.%+[.].!..+.+Z.G ^.|+.+%+^.G Z..+ +1+].5. +.+!.{.^.2+`.6.{.++Z..+|+}.}..+.+.+h.3.Y..+.+#+G 6..+.+ +7.].#+%+`.k.h.2+.+",
"[ n.3+O 4+r.4+@.M r.r.-+-+M.L.-+r.-+L.M.r.-+< L.M L.r.-+r.M.L.D 4+y ,.+.4+r.r.M M r.r.r.z.M y -+r.&+M.&+r.-+< z.n &+A -+..!+'.d.",
"m.! m.m., ! ; ; g g ; ' / ! ! ) ! ) ! 5+! ' ! ! ! ! ! / ; ; / ~ , z z z g ! ! ; N g ; ! ! N g / ; ; N g ; / ) / ! ! ! ! g ;+x. .",
"! > , , ; > ' ' / ! ' 3 ~ { > 3 ~ ~ > > ] ^ ] > > > ] ] ' / 4 _ ! , , , ! > > ' ! ! ' ] ' ! ! ] > ' / ! / ~ ~ > > > > > ! z < d ",
"! } {+1 ; > > ' ! ; > 2 ~ ] > ^ ^ ~ > ] ] 2 ~ > > > ~ ~ > 5 6+7 8 S t.Q ; > ] / ! ! a 3 ' ! ! ~ ] ' / ! / ^ ~ > ] ] ~ > ! v.c d ",
"! e f w g > > ' ! g > 2 ~ ] ] ^ ^ 3 > 3 ] 2 3 > ] { ~ 3 > h N.i s.0 l m g ] > ' ; ; > 3 ' ! g ~ ] ' ! ; ! r 3 ] { 3 ~ > ; n o 4+",
"; s 9 , , ' > ' ! ; ' ^ ~ ] ] 3 3 3 > ~ ] 2 ~ > ] { ~ 3 > ! p u ! C 9 Q g > > ' ! ; > ~ ' / g ] > ' / ! ! ~ 3 a ] ] ~ > ; Z r.[ ",
"; ' g g , ' ' / ! ! ' ~ ] > > ~ ] ~ > > > ^ { 4 4 > ] ~ ' ' 3 _ ! g g , g > > / ! ! ' > ' / ! > ' ' ! ! ! ] 3 > > 4 { ' ; z < [ ",
"; ' N g , / / ! ! ! ' ] ] > ' > > ] 4 ' > ~ > > s ' > > ! / > 7+! , N , , ) / ! ! ! / ' ! ! ! ' / ! ! ! ! > 3 > ' ' > ' g l.x.[ ",
"g p q , , ! ! ! ; g ' ] > > ) ' ' > > ' / 4 ' > ' / / / ; 5 F u ; H x Q , ! ! ! ; ; ! ' ! ; ; ' ! ! ! ; ! > ] ' ' / > ! , D ..[ ",
", F J H , ; ; ; g g ! > / ' ! / ) ' ' ) ! s / ' ' ! ! ! g I J K ` M G T Q ! ; ; g g ! / ! g g ) ; ; ; g ; ' ' ' / ! ! ; z O P E ",
"m.v S.: z g p.p.p.p.8+/ 5+5+8+5+5+5+5+8+5+/ 5+5+5+N 8+8+m.Q S } , V z.l.z N p.p.p.p.N 8+p.p.p.5+p.p.p.p.p.5+5+5+5+5+; g z y W B.",
"m I =+=+9 h q R.{+{+u.6+u.9+u.6+9+6+u.u.u.6+0+u.u.{+9+u.R.q h } C v.9 S | {+{+{+{+{+u.u.{+{+{+6+{+{+{+{+{+6+6+u.6 R.h I b V d  .",
"c n k k a+* l P.[+[+[+[+[+}+b+[+b+[+}+}+[+[+[+b+}+b+[+=.O.l = 0 @.a+G l P.[+[+}+}+[+[+[+}+}+[+[+[+b+}+[+[+[+[+[+&.N.= ,.#.j.<+).",
"9.|.[.h.k.Y.Y.e.}.6.#+#+#+{.7.c+#+6.7.G #+#+|.7.].^.#+#+#+{.^.#+k.~._.1+#+#+c+}.[.#+#+|.7.].o #+#+5.G 5.#+#+|.e.].~.k.k.|.7.Y.8.",
"9.0.X.^.a.'.a.#.X.0.a.b.'.].j.0.b.0.^.a+'.b.g.5.e.f.a.b.0.].j.<+a.i.[.f.a.a.0.7.h.a.a.a.j.e.i.b.a.#+}.d+a.b.g.^.e.A.b.b.Y.^.Y.8.",
"[ < r.r.< *+< -+-+< < ;+*+n.w.X *+;+w.n.;+l.*+*+n.w.;+;+*+n.-+z x.d r.A A *+< -+-+*+< *+< -+< ;+< < n.< < *+*+*+n.w.;+*+< d o.o.",
"< z ;+;+z g z l.z z Q ; g , : ! p.g Q Q g ! g , m., g g Q : z ! l.*+;+;+l.p.Q l.z m.Q p.z z z g Q z z z m.g g Q m.g g g : < [ [ ",
"< : n.< l.m.l.;+l.z z g Q z z g p.g z z , ; , : : Q , , : l.C ! ;+< n.*+l.Q z l.l.: z m.l.z z , z l.X z : , g z z , , , l.A [ [ ",
"x.D @.< *+z *+< *+;+l.Q z l.;+Q z z X ;+: , z l.;+l.z m.l.-+@.1 < y j.< ;+: ;+< *+l.l.z *+*+;+z l.< < ;+l.m.z ;+;+z z z *+..W B.",
"d &+7.r.< *+< A < < < ;+;+< < l.*+;+< < ;+l.*+*+< *+;+l.*+n.e.9 A !+e+r.A *+< A < < < *+< < < *+< < A < < *+;+*+< ;+;+*+A P Y.:+",
" .x...[ d A x.d d A x.< < A A < < < A x.< < A < A < < < A d y w.[ E ..[ d x.x.d x.x.x.A d x.x.< x.d d x.A < < A x.< < < d B.:+o.",
"!++.!+!++.+.+.+.+.+.+.L.+.+.+.L.+.+.+.+.+.L.+.+.+.+.+.+.+.+.+.L.+.!+!+!++.+.+.!++.+.+.+.+.+.+.+.+.!++.+.+.+.+.+.+.+.+.+.+.!+P P "};
