/* XPM */
static char * 1_xpm[] = {
"64 64 43 1",
" 	c #202020",
".	c #000000",
"+	c #0E0E0E",
"@	c #060606",
"#	c #121212",
"$	c #131313",
"%	c #0F0F0F",
"&	c #010101",
"*	c #1A1A1A",
"=	c #161616",
"-	c #1F1F1F",
";	c #050505",
">	c #101010",
",	c #0A0A0A",
"'	c #0C0C0C",
")	c #020202",
"!	c #272727",
"~	c #1D1D1D",
"{	c #030303",
"]	c #040404",
"^	c #0D0D0D",
"/	c #151515",
"(	c #141414",
"_	c #181818",
":	c #0B0B0B",
"<	c #232323",
"[	c #212121",
"}	c #1C1C1C",
"|	c #1E1E1E",
"1	c #252525",
"2	c #080808",
"3	c #070707",
"4	c #090909",
"5	c #111111",
"6	c #171717",
"7	c #1B1B1B",
"8	c #222222",
"9	c #191919",
"0	c #282828",
"a	c #242424",
"b	c #262626",
"c	c #363636",
"d	c #3F3F3F",
" .+.@........+.....#...$..%&&..*.@.=.&...&-;.$.@.>.,'..)..&...!.",
"~&{]....^./...&&/..)..(_&....))...&@.),.-:..........$.-......{..",
"<).]%.@.[$.&]....;&..&&'&..{&.&.&;...&&))...].&._-.}...^-.......",
",.....&.@.).)..{&.^:&.&.{.&..&......].%.{.).|.&{.[&.;..1_.&.2:#3",
"|.4.&&,.....&..+.&.#&&.&,&]2{4......4;,.&.._.)..@.,&.......%$+)=",
".5_.&.).&.%.&]&..#&....&.@^]..&3...+.{.{.....6...&).6.>..>&.@6&&",
"...&&.>:>2^}.5..&....)+..2..&.&.|~)..;.....{)(&7.~.:.....):&#...",
"...]..&&.~(2..7}..{...&^@'{4)...&.&.5.....)..;.&|.;.'7.@..3.....",
"...*.|(....4.4$&&&...{:.{..3..@.&=...;&.2..{&..).&$&++.'&&...%..",
"[&6....*{.6,...+.].)..{4&@3....(..5..3...&,@....&....;86....{}..",
"...._:&..(;.....@;.;....&&&&.4..7(.=.;&.{4]:{.&.'.&.5.&....5...#",
".@....:^9.;.&....;&{2......._)....])7/&&@.{;&2:&....'...>...+...",
"...)%)..,&.&).{.&..]...&)&&&..^........&]&.42+.%.].2)9.)/&..|%.&",
"*...#.4.(&...{&>.;&&..&.&..#._$.._.....^.:..,..3&{{.{;4.].&.~1..",
"|7&&...&.%]..]]&,.)..&{)&..{...3&{.&...@&.&{&.3@),.&]....55.).._",
".....@&#&..).44....^@.+.#.......|=..&.....>.3.{.:.,&....)./..,..",
"<.]./.]&.+...];&..&.]&..]&9..........%&^])3).,].{;..&{%.).;..&..",
".).)..).....$;{&..2=.)]..5_$].,&.3+..&.&.9];&.$.;.@:@.&.%.&.&.&.",
"..&...].&&..&;.]].9.(&).]&.)~0..&&..../...@...@#;&..@:.4..]#..&.",
".&.......&.'.{&.&&.{..&.3.%...(>-;..%/,.&).]&....&];&.&.{&(.....",
".&.&+&;.2...&)..'.)..;)&....&*.&9..&,*.&.3&.)....&&&...........&",
"....)]&4..,&.;)..(.^..2..&&~)/.+a}/&1.....,&3...&...&.;..;...'..",
"...'...:.{..&.3)&..._/{..&)}&...!.)9.;.6|.{./..&>.;^].)@..'&&..)",
"&)).&..3.....{.6#..:.#&)._.^;...;{&{_>)]&5)*....,.){2{....&.....",
".&.4+&&,.)....&&)..(.]@.&..b. .^.;%5..{.0.&.93./.+5...;.;.4].._.",
"&.&.2.&.;.&....+]5.{{..&4.].] ~.&~).$&..|.@( .&>&&/&...&.3).&...",
".......)...;&5&..3...;.%.]&}#...&=.+{..&...&&3|.~{+.6.&&&..'....",
"5&....{%]&/{)..):.&{=.9. .9...... ..9..&...)&..&.&)3.3:>&..@..&.",
"{...&#................^... '~..-)&&..3.....&,.....2..*...4..3]&&",
"2..)..4..>{_.&&.=,^..^.]@@.......c&;:&|&&.....)._:(...&.&.....&.",
".&.&{......_.&...&(:...{.+..&6:.........&.,.&.=7.&..#@.&.....&&.",
"..,7......$...@..._|....81.._&+d...-.....=.&.&,...&..&.&..@5&.&.",
".@.=.&...&-;.$.@.>.,'..)..&...!. .+.@........+.....#...#..%&&..*",
"..&@.),.-:..........$.-......{..~&{]....^./...&&/..)..(_&....)).",
"&;...&&))...].&._-.}...^-.......<).]%.@.[$.&]....;&..&&'&..{&.&.",
"....].%.{.).|.&{.[&.;..1_.&.2:#3,.....&.@.).)..{&.^:&.&.{.&..&..",
"....4;,.&.._.)..@.,&.......%$+)=|.4.&&,.....&..+.&.#&&.&,&]2{4..",
"...+.{.{.....6...&).6.>..>&.@6&&.5_.&.).&.%.&]&..#&....&.@^]..&3",
"|~)..;.....{)(&7.~.:.....):&#......&&.>:>2^}.5..&....)+..2..&.&.",
"&.&.5.....)..;.&|.;.'7.@..3........]..&&.~(2..7}..{...&^@'{4)...",
"&=...;&.2..{&..).&$&++.'&&...%.....*.|(....4.4$&&&...{:.{..3..@.",
"..5..3...&,@....&....;86....{}..[&6....*{.6,...+.].)..{4&@3....(",
"7(.=.;&.{4]:{.&.'.&.5.&....5...#...._:&..(;.....@;.;....&&&&.4..",
"..])7/&&@.{;&2:&....'...>...+....@....:^9.;.&....;&{2......._)..",
".......&]&.42+.%.].2)9.)/&..|%.&...)%)..,&.&).{.&..]...&)&&&..^.",
"._.....^.:..,..3&{{.{;4.].&.~1..*...#.4.(&...{&>.;&&..&.&..#._$.",
"&{.&...@&.&{&.3@),.&]....55.).._|7&&...&.%]..]]&,.)..&{)&..{...3",
"|=..&.....>.3.{.:.,&....)./..,.......@&#&..).44....^@.+.#.......",
".....%&^])3).,].{;..&{%.).;..&..<.]./.]&.+...];&..&.]&..]&9.....",
".3+..&.&.9];&.$.;.@:@.&.%.&.&.&..).)..).....$;{&..2=.)]..5_$].,&",
"&&..../...@...@#;&..@:.4..]#..&...&...].&&..&;.]].9.(&).]&.)~0..",
"-;..%/,.&).]&....&];&.&.{&(......&.......&.'.{&.&&.{..&.3.%...(>",
"9..&,*.&.3&.)....&&&...........&.&.&+&;.2...&)..'.)..;)&....&*.&",
"a}/&1.....,&3...&...&.;..;...'......)]&4..,&.;)..(.^..2..&&~)/.+",
"!.)9.;.6|.{./..&>.;^].)@..'&&..)...'...:.{..&.3)&..._/{..&)}&...",
";{&{_>)]&5)*....,.){2{....&.....&)).&..3.....{.6#..:.#&)._.^;...",
".;%5..{.0.&.93./.+5...;.;.4].._..&.4+&&,.)....&&)..(.]@.&..b. .^",
"&~).$&..|.@( .&>&&/&...&.3).&...&.&.2.&.;.&....+]5.{{..&4.].] ~.",
"&=.+{..&...&&3|.~{+.6.&&&..'...........)...;&5&..3...;.%.]&}#...",
". ..9..&...)&..&.&)3.3:>&..@..&.5&....{%]&/{)..):.&{=.9. .9.....",
"{&&..3.....&,.....2..*...4..3]&&{...&#................^... '~..-",
".c&;:&|&&.....)._:(...&.&.....&.2..)..4..>{_.&&.=,^..^.]@@......",
"........&.,.&.=7.&..#@.&.....&&..&.&{......_.&...&(:...{.+..&6:.",
"...-.....=.&.&,...&..&.&..@5&.&...,7......$...@..._|....81.._&+d"};
