/* XPM */
static char * 2_xpm[] = {
"64 64 34 1",
" 	c #202020",
".	c #000000",
"+	c #121212",
"@	c #010101",
"#	c #101010",
"$	c #0A0A0A",
"%	c #020202",
"&	c #0D0D0D",
"*	c #040404",
"=	c #131313",
"-	c #060606",
";	c #0F0F0F",
">	c #030303",
",	c #1F1F1F",
"'	c #070707",
")	c #0B0B0B",
"!	c #181818",
"~	c #050505",
"{	c #161616",
"]	c #171717",
"^	c #0C0C0C",
"/	c #1C1C1C",
"(	c #141414",
"_	c #090909",
":	c #1A1A1A",
"<	c #212121",
"[	c #080808",
"}	c #191919",
"|	c #0E0E0E",
"1	c #151515",
"2	c #1D1D1D",
"3	c #111111",
"4	c #1B1B1B",
"5	c #222222",
" ......................+...@@.............#........$...%..@.....",
".@......&.....@@*..%..@.@.....%......%..............=........@..",
"-%..;.-..>.......%.....@......@.@.....@%....@...%,......,.......",
"......@.'...@..>...)..@.@...............*.........@.....!.@..)..",
"*.@.@@@.....@....@.@@@.@@@~.>'..........@....%..-...........%.%{",
"..@.@.%.@.-.@*@.............................................-]@@",
"...@@.#.#.&]....@....%...........^@.........%@@.............+...",
"...*..@../(...........@.-.._....@.@...........@@..@.^(.@..'.....",
"...:.......%.....@......@.....%.@...@~@.@..@.....@....@.@.......",
"<@]..............@.%....@.'.....@........@...........~@......>..",
".....%@..(~.....-~......@@.@.....(....@..[..>.@.....@...........",
"......@.}........~@.[.......!.....*.................@...#.......",
".....%..$.....>....*...@.@@...&........@.@...|.....[.@.@....]@.@",
"1.......^@...@.~.@@@..@.@..+.!@..@.....&.@..$..'..>..@>.*.@.2@..",
"..@....@.;....@......@.%...>....@>.@....@.....'....@.....@-.....",
"......@%@.....'.....@...%.......|...........-.@....@.........$..",
".......@..........@.....>@......@......>%.'...*.@*..@@@.%....@..",
".%.%........=..@...#.@...3.%*..@.'...@.@...%@.|.....-.@.;...@.@.",
"..@.....@...@...@.3.-....@..2<.@......@...>....%@......_......@.",
".@.........%..@.@@....@.~.;...........@..%..@....@.~.....%@.....",
".@.@.@~.[...@........~......@%..}..@)..@.'.......@@............@",
"....%.................@...@{%'...@.@......$@....@...............",
"...@...*....@.'%@...>.>..@%%.......}......>.|..@;.@.......>@@..@",
"@@..@..............)..@%@&..@.....@>..%>@.%.......%.*.....@.....",
".@...@@.........@@.@....@..^...@..;...>.#.@.!..1.|3......._*..!.",
"@.@...@............>%..@..... ..@4%.=@....-(^..&.@.@...@....@...",
"...........@..@......@....@.........%..@......@..>.....@@.@.....",
"3@.......@.>%..%).@...|. .@............@...%.....@@@..)#@.....@.",
">....+................&........@.@@......................_.....@",
"......_...>@.@@..$...@.@-.........@~...@........!%....@.........",
"...@%........@...........@..............@.*.@..4.....@.......@@.",
"..%.......=...-....~....+.@...@5.........{.@.@.......@.@....@.@.",
"..........#........$...%..@..... ......................+...@@...",
".....%..............=........@...@......&.....@@*..%..@.@.....%.",
"@.....@%....@...%,......,.......-%..;.-..>.......%.....@......@.",
"........*.........@.....!.@..)........@.'...@..>...)..@.@.......",
"........@....%..-...........%.%{*.@.@@@.....@....@.@@@.@@@~.>'..",
"............................-]@@..@.@.%.@.-.@*@.................",
".^@.........%@@.............+......@@.#.#.&]....@....%..........",
"@.@...........@@..@.^(.@..'........*..@../(...........@.-.._....",
"@...@~@.@..@.....@....@.@..........:.......%.....@......@.....%.",
"@........@...........~@......>..<@]..............@.%....@.'.....",
".(....@..[..>.@.....@................%@..(~.....-~......@@.@....",
"..*.................@...#.............@.}........~@.[.......!...",
".......@.@...|.....[.@.@....]@.@.....%..$.....>....*...@.@@...&.",
".@.....&.@..$..'..>..@>.*.@.2@..1.......^@...@.~.@@@..@.@..+.!@.",
"@>.@....@.....'....@.....@-.......@....@.;....@......@.%...>....",
"|...........-.@....@.........$........@%@.....'.....@...%.......",
"@......>%.'...*.@*..@@@.%....@.........@..........@.....>@......",
".'...@.@...%@.|.....-.@.;...@.@..%.%........=..@...#.@...3.%*..@",
"......@...>....%@......_......@...@.....@...@...@.3.-....@..2<.@",
"......@..%..@....@.~.....%@......@.........%..@.@@....@.~.;.....",
"}..@)..@.'.......@@............@.@.@.@~.[...@........~......@%..",
".@.@......$@....@...................%.................@...@{%'..",
"...}......>.|..@;.@.......>@@..@...@...*....@.'%@...>.>..@%%....",
"..@>..%>@.%.......%.*.....@.....@@..@..............)..@%@&..@...",
"..;...>.#.@.!..1.|3......._*..!..@...@@.........@@.@....@..^...@",
"@4%.=@....-(^..&.@.@...@....@...@.@...@............>%..@..... ..",
"....%..@......@..>.....@@.@................@..@......@....@.....",
".......@...%.....@@@..)#@.....@.3@.......@.>%..%).@...|. .@.....",
".@@......................_.....@>....+................&........@",
"..@~...@........!%....@..............._...>@.@@..$...@.@-.......",
"........@.*.@..4.....@.......@@....@%........@...........@......",
".........{.@.@.......@.@....@.@...%.......=...-....~....+.@...@5"};
