/* XPM */
static char * 3_xpm[] = {
"64 64 95 2",
"  	c #000000",
". 	c #010001",
"+ 	c #010101",
"@ 	c #020202",
"# 	c #020203",
"$ 	c #030303",
"% 	c #000100",
"& 	c #000101",
"* 	c #010102",
"= 	c #000001",
"- 	c #191919",
"; 	c #020201",
"> 	c #060608",
", 	c #020102",
"' 	c #010000",
") 	c #060609",
"! 	c #050506",
"~ 	c #040406",
"{ 	c #010202",
"] 	c #050505",
"^ 	c #040405",
"/ 	c #020303",
"( 	c #040404",
"_ 	c #080808",
": 	c #030304",
"< 	c #070709",
"[ 	c #070505",
"} 	c #0F0B0B",
"| 	c #010100",
"1 	c #0F0B0A",
"2 	c #16161B",
"3 	c #494949",
"4 	c #040303",
"5 	c #161616",
"6 	c #0A090D",
"7 	c #040305",
"8 	c #303030",
"9 	c #141414",
"0 	c #3B3A47",
"a 	c #1E1D24",
"b 	c #34333F",
"c 	c #141419",
"d 	c #0D0D11",
"e 	c #09080C",
"f 	c #1D1616",
"g 	c #2B2B34",
"h 	c #070707",
"i 	c #3C2F2F",
"j 	c #060606",
"k 	c #3B2F2F",
"l 	c #171212",
"m 	c #1E1717",
"n 	c #07070A",
"o 	c #222223",
"p 	c #030203",
"q 	c #1B1A21",
"r 	c #1A1313",
"s 	c #261D1D",
"t 	c #0C0D0D",
"u 	c #0E0E0E",
"v 	c #5A5A5A",
"w 	c #535353",
"x 	c #1B1B21",
"y 	c #646464",
"z 	c #2D2D2E",
"A 	c #7F7F7F",
"B 	c #5E5E5E",
"C 	c #09090A",
"D 	c #030202",
"E 	c #070609",
"F 	c #2C2B36",
"G 	c #0E0A0A",
"H 	c #09090C",
"I 	c #6D6C79",
"J 	c #B2B1BB",
"K 	c #050404",
"L 	c #0A0A0D",
"M 	c #030405",
"N 	c #151616",
"O 	c #0D0D0E",
"P 	c #31303B",
"Q 	c #343434",
"R 	c #746565",
"S 	c #171112",
"T 	c #020101",
"U 	c #7A7070",
"V 	c #837878",
"W 	c #1B1414",
"X 	c #171111",
"Y 	c #0D0D0F",
"Z 	c #090909",
"` 	c #14141A",
" .	c #1A1A21",
"..	c #5F5E6C",
"+.	c #3C3B48",
"  . + + + + + @   + + # $   + @   % + + & + + @     + + + . +     . + + + + + @   + + # $   +     % + + & + + @     + +   . +   ",
"  + + + + & . + + & + + @ + &     . + + + * = + - + + + + +       + + + + & . + + & + + @ + &     . + + + * = + + + + + + +     ",
"+ + ; + + + & > + * @ + + + . + + + , + + + ' ) ! * @ + + + = + + + ; + + + & > + * @ ~ + + . + + + , + + + ' > + * @ + + { = + ",
". + & + + + + ] + ^ %   + + + . # + = ' + / + ( + ^ . % + + + + . + &   + + + ] + ^ + ! + + + . # + = ' + / + ( + ^ . % + + + + ",
"@ & + + _ + # +   + + ( & + * + $ + + + _ + # + + + + ( + + * + @ & + + _ + # +   + + ( & + * + $ + + + _ + # +   + + ( + + * + ",
"+ + @ +   + ) + + + @ +   + : + + + @ < = + ) + + + @ +   + : + + + @ +   + ) + + + @ +   + : + + + @ < = + ) + + + @ +   + : + ",
"# + + + + @ * + [ + : @ + + ' + # + * + + @ * + [ + : @ + +   + # + + + + @ * + [ + : @ + + ' + # + * + + @ * + [ + : @ + +   + ",
"+ = + . + & }     ' + + @ @ # , +   + | + & 1       + + $ @ # @ + = + . + & }     ' + 2 @ @ # , +   + | + & 1       + + $ @ # @ ",
"+ & + +   ' + =   3 + + + . + @ & + + +   . +     4 + + + + + @ + & + +   ' + =   3 + + + . + @ & + + +   . +     4 + + + + + @ ",
"5 + + + + 6 7     + @ + : + & + + & + + + 6 ^ 8 = + @ + : . . + 5 + + + + 6 7     + @ + : + & + + & + + + 6 ^ 8 = + @ + : . . + ",
"+ $ @ ^ + @ @ + + + { + & + . > + , @ + + @ # + + + { + & + + > + $ @ ^ + @ : ! + + { + & + . > + , @ + + @ # + + + { + & + + > ",
"@ + =   9 + + % & + + + 0 + + ( + & & | 9 + + @ + + + = + + + ] @ + =   9 + a b & + + + 0 + + ( + & & | 9 + + @ + + + = + + + ] ",
"c + + &   d @ @ @ = + : e & * + f @ + * g + @ ^ @ & + + = + * + c + + &   d @ @ @ = + + e & * + f @ + * g + @ ^ @ & + + = + * + ",
"+ + @ =   + : + + + @ h   + & + i @ @ &   + : + + + { .   + + @ + + @ =   + : + + + @ j   + & + k @ @ &   + : + + + { .   + + @ ",
"' l + + + +   + @ + + + + +   + . + ' * + +   + @ + + + + + m + ' l + + + +   + @ + + + + +   + . + ' + + +   + @ n + + + + m + ",
"  + @ + @ @ # , + & + + & + & ^     + + @ @ # , @ o + p q + +     + @ + @ @ # , + & + + & +         + + @ @ # , @ o + p q + +   ",
"  | + + & + + @     + +   = + *   + r s + + + @   + + + #   +     | + + & + + @     + +   = &     + r s + + + @   + + + #   +   ",
"t u + + + *   + + & + + + + =     + + $ + + | + + * + + @ &     + + + + + *   + + & + + + & =     + + $ + + | + + * + + @ &     ",
"v w ; + & + = > + * @ + + + + + + + @ + + + . > / x @ + . + % + + + ; + & + = > + * @ + + + y z + + @ + + + . > / x @ + . + % + ",
"@ + +   + + + ( + ^     + + + | . & & = + + + ] * ^ & . + + + + @ + +   + + + ( + ^     + + A B . & & = + + + ] + ^ & . + + + + ",
"$ + + + _ + / +   + + ( + C { + D & + + _ + # +   + + ( . + { + $ + + + _ + / +   + + ( + C { + D & + + _ + # +   + + ( . + { + ",
"+ + @ n = + E + + + @ + + + : + + + @ &   + > + + + @ +   . : + + + @ n = + E + + + @ + + + : + + + @ &   + > + + + @ +   . : + ",
"# + + + + @ * + [ + : @ + +   + # + + + + @ * + [ + : @ + +   + # + + + + @ * + [ + : @ + +   + # + + + + @ * + [ + : @ + +   + ",
"F + + + + + }       + . $ @ # ; + & + + # . G       + ' @ { # , + & + + + + }   +   + . $ @ # ; + & + + # . G       + ' @ @ H @ ",
"I + + +   = + = = 4 + + + + @ @ + . + +   = +     ( + + + & + @ + + + +   = + : J K + + + + @ @ + . + +   = +     ( + + + + @ @ ",
"+ & + + + L M + = + @ + : d L + N + + + + L O     + @ + : =   & + & + + + L M + P + @ + : d L + N + + + + L ^     + @ + : =   & ",
"+ * { + + @ # + + + { + + + ' > + $ { + + @ Q + + + @ + + + & > + * { + + @ # + + + { + + + ' > + $ { + + @ @ + + + @ + + + & > ",
"+ + = = 9 + + + + + + = + + + ( @ + + & 9 + + . + + +   + + + ( + + = = 9 + + + + + + = + + + ( @ + + & 9 + + . + + +   + + + ( ",
"  + + +   + @ @ @   + + % + * + c + + .   d @ @ # = + + + + * +   + + +   + @ @ @   + + % + * + c + + .   d @ @ # = + + % + * + ",
"+ + : R $ + : + + + { . = + + @ + + @ &   + : + + & @ &   + % + + + , = + & : + + + { . = + + @ + + @ &   + : + + & @ &   + % + ",
"  +   + ] + = + @ + + + + + m + = S + + + + = + # + + + + + = +   +   + + + = + @ + + + + + m + = S + + + + = + # + + + + + = + ",
"    + + @ @ # T @ o + / x .       + @ + @ { # ; + | + + + +         + + @ @ # T @ o + / x .       + @ + @ { # ; + | + + + +     ",
"  . + + + + + @   + + # #   +     % + + & + + @     + +   . +     . + + + U V @   + + # #   + @   % + + & + + @     + + + . +   ",
"  + + + + + . + + & + + @ + &     . + + + * = + + + + + + +       + + + + W X + + & + + @ + &     . + + + * = + - + + + + +     ",
"+ + ; + + @ & > + * @ ~ + + . + + + , + + + ' > + * @ + . + = + + + ; + + + ( Y + * @ + + + . + + + , + + + ' ) ! * @ + . + = + ",
". + &   + + + ] + ^ + ! + + + . # + = ' + / + ( + ^ . % + + + + . + &   + Z ] ] + ^ %   + + + . # + = ' + / + ( + ^ . % + + + + ",
"@ & + + _ + # +   + + ( & + * + $ + + + _ + # +   + + ( + + @ + @ & + + _ + # +   + + ( & + * + $ + + + _ + # +   + + ( + + * + ",
"+ + @ +   + ) + + + @ +   + : + + + @ < = + ) + + + @ +   + : + + + @ +   + ) + + + @ +   + : + + + @ < = + ) + + + @ +   + : + ",
"# + + + + @ * + [ + : @ + + ' + # + * + + @ * + [ + : @ + +   + # + + + + @ * + [ + : @ + + ' + # + * + + @ * + [ + : @ + +   + ",
"+ = + . + & }     ' + + @ @ # , +   + | + & 1       + + $ @ # @ + = + . + & }     ' + + @ @ # , +   + | + & 1       + + $ @ # @ ",
"+ & + +   ' + =   3 + + + . + @ & + + +   . +     4 + + + + + @ + & + +   ' + =   3 + + + . + @ & + + +   . +     4 + + + + + @ ",
"5 + + + + 6 7     + @ + : + & + + & + + + 6 ^ 8 = + @ + : . . + 5 + + + + 6 7     + @ + : + & + + & + + + 6 ^ 8 = + @ + : . . + ",
"+ $ @ ^ + @ : ! + + { + & + . > + , @ + + @ # + + + { + & + + > + $ @ ^ + @ @ + + + { + & + . > + , @ + + @ # + + + { + & + % > ",
"@ + =   9 + a b & + + + 0 + + ( + & & | 9 + + @ + + + = + + + ] @ + =   9 + + % & + + + 0 + + ( + & & | 9 + + @ + + + = + + + ] ",
"c + + &   d @ @ @ = + + e & * + f @ + * g + @ ^ @ & + + = + * + c + + &   d @ @ @ = + : e & * + f @ + * g + @ ^ @ & + + = + * + ",
"+ + @ =   + : + + + @ j   + & + k @ @ &   + : + + + { .   + + @ + + @ =   + : * H + @ h   + & + i @ @ &   + : + + + { .   + + @ ",
"' l + + + +   + @ + + + + +   + . + ' + + +   + @ n + + + + m + ' l + + + +   { ` + + + + +   + . + ' * + +   + @ + + + + + m + ",
"  + @ + @ @ # , + & + + & +         + + @ @ # , @ o + p q + +     + @ + @ @ # , + & + + & +         + + @ @ # , @ o + p q + +   ",
"  | + + & + + @     + +   = &     + r s + + + @   + + + #   +     | + + & + + @     + +   = &     + r s + + + @   + + + #   +   ",
"+ + + + + *   + + & + + + & =     + + $ + + | + + * +  .c &     t u + + + *   + + & + + + + =     + + $ + + | + + * + + @ &     ",
"+ + ; + & + = > + * @ + + + + $ + + @ + + + . > / x @ ..+.+ % + v w ; + & + = > + * @ + + + + + + + @ + + + . > / x @ + . + % + ",
"@ + +   + + + ( + ^     + + + + . & & = + + + ] + ^ & . + + + + @ + +   + + + ( + ^     + + + | . & & = + + + ] * ^ & . + + + + ",
"$ + + + _ + / +   + + ( + C { + D & + + _ + # +   + + ( . + { + $ + + + _ + / +   + + ( + C { + D & + + _ + # +   + + ( . + { + ",
"+ + @ n = + E + + + @ + + + : + + + @ &   + > + + + @ +   . : + + + @ n = + E + + + @ + + + : + + + @ &   + > + + + @ +   . : + ",
"# + + + + @ * + [ + : @ + +   + # + + + + @ * + [ + : @ + +   + # + + + + @ * + [ + : @ + +   + # + + + + @ * + [ + : @ + +   + ",
"+ & + + + + }       + . $ @ # ; + & + + # . G       + ' @ { # @ F + + + + + }       + . $ @ # ; + & + + # . G       + ' @ { # , ",
"+ + + +   = + = = 4 + + + + @ @ + . + +   = +     ( + + + & + @ I + + +   = + = = 4 + + + + @ @ + . + +   = +     ( + + + & + @ ",
"+ & + + + L M + = + @ + : d L + N + + + + L ^     + @ + : =   & + & + + + L M + = + @ + : d L + N + + + + L ^     + @ + : =   & ",
"+ * { + + @ # + + + { + + + ' > + $ { + + @ @ + + + @ + + + & > + * { + + @ # + + + { + + + ' > + $ { + + @ @ + + + @ + + + & > ",
"+ + = = 9 + + + + + + = + + + ( @ + + & 9 + + . + + +   + + + ( + + = = 9 + + + + + + = + + + ( @ + + & 9 + + . + + +   + + + ( ",
"  + + +   + @ @ @   + + % + * + c + + .   d @ @ # = + + % + * +   + + +   + @ @ @   + + % + * + c + + .   d @ @ # = + + % + * + ",
"+ + , =   & : + + + { . = + + @ + + @ &   + : + + & @ &   + % + + + p R $ + : + + + { . = + + @ + + @ &   + : + + & @ &   + % + ",
"  +   + + + = + @ + + + + + m + = S + + + + = + # + @ + + + = +   +   + ] + = + @ + + + + + m + = S + + + + = + # + + + + + = + ",
"    + + @ @ # T @ o + / q .       + @ + @ { # ; + | + + + +         + + @ @ # T @ o + / q .       + @ + @ { # ; + | + + + +     "};
