/* XPM */
static char * 4_xpm[] = {
"64 64 37 1",
" 	c #000000",
".	c #020202",
"+	c #0C0C0C",
"@	c #333433",
"#	c #858484",
"$	c #090909",
"%	c #1A1A1A",
"&	c #010101",
"*	c #030303",
"=	c #0B0B0C",
"-	c #0B0C0C",
";	c #010201",
">	c #151515",
",	c #010102",
"'	c #232323",
")	c #101010",
"!	c #4A4A4A",
"~	c #040404",
"{	c #020201",
"]	c #030404",
"^	c #0C0B0B",
"/	c #4C4C4B",
"(	c #424242",
"_	c #464646",
":	c #2B2B2B",
"<	c #2D2D2D",
"[	c #272727",
"}	c #5F5F5E",
"|	c #898989",
"1	c #0F0E0F",
"2	c #323232",
"3	c #797979",
"4	c #565656",
"5	c #181818",
"6	c #2F2F2F",
"7	c #171717",
"8	c #202020",
" .+ @    #       .+      .     $ .+ @    .       .+      .     %",
"                                                                ",
"  &       &       &       &       &       &       &       &     ",
"   &   *   &   *   &   *   &   *   &   *   &   *   &   *   &   *",
"                                                                ",
"   .=              .-              .=              .-           ",
"      ;       >       ,       >       ;       >       ,       > ",
"   &   &   &   &   &   &   &   &   &   &   &   &   &   &   &   &",
" .       .       .       .       .       .       .       .      ",
"                                                                ",
"  &       &       &       &       &       &       &       &     ",
"   &   ''  &   *   &   *   &   *   &   ''  &   *   &   *   &   *",
"           $)              $!              $)              $!   ",
"~               ~               ~               ~               ",
"      &       {       ,       ;       &       {       ,       ; ",
"   &   &   &   &   &   &   &   &   &   &   &   &   &   &   &   &",
" .+      .       .+      .       .+      .       .+      .      ",
"                                                                ",
"  &       &       &       &       &       &       &       &     ",
"   &   *   &   *   &   *   &   *   &   *   &   *   &   * ] &   *",
"                            $                               $   ",
"   .=              .^              .=              .^           ",
"      &       >/(     .       >       &       >       .       > ",
"   &   &   &   _:  &   &   &   &   &   &   &   &   &   &   &   &",
" .       .       .     <[.       .       .       .     <[.      ",
"                                                        }|      ",
"  &       &       .$      &       &       &       &       &     ",
" 1 &   *   &   *   &   *   &   * 1 &   *   &   *   &   *   &   *",
"           $)              $)              $)              $)   ",
"~               ~               ~               ~               ",
"      ;       ,       &       ,       ;       ,       &       , ",
"   &   &   &   &   &   &   &   &   &   &   &   &   &   &   &   &",
" .+ @    .       .+      .     $ .+ @    .       .+      .     $",
"                                                                ",
"  &       &       &       &       &       &       &       &     ",
"   &   *   &   *   &   *   &   *   &   *   &   *   &   *   &   *",
"                                                                ",
"   .=              .-              .=              .-           ",
"      ;       >       ,       >       ;       >       ,       > ",
"   &   &   &   &   &   &   &   &   &   &   &   &   &   &   &   &",
" .       .       .       .       .       .       .       2      ",
"                                                                ",
"  &       &       &       &       &       &       &       &     ",
"   &   ''  &   *   &   *   &   *   &   ''  &   *   &   *   &   *",
"           $)              $!              $)              $!   ",
"~               ~               ~               ~               ",
"      &       {       ,       ;       &       {       ,       ; ",
"   &   &   &   &   &   &   &   &   &   &   &   &   &   &   &   &",
" .+      .       .+      .       .+      .     34.+      .      ",
"                                                                ",
"  &       &       &       &       &       &       &       &     ",
"   &   *   &   *   &   *   &   *   &   *   &   *   &   *   &   *",
"                            $                               $   ",
"   .=              .^              .=              .^           ",
"  56  &       >       .       >       &       >       .       > ",
"  78   &   &   &   &   &   &   &   &   &   &   &   &   &   &   &",
" .       .       .     <[.       .       .       .     <[.      ",
"                                                                ",
"  &       &       &       &       &       &       &       &     ",
" 1 &   *   &   *   &   *   &   * 1 &   *   &   *   &   *   &   *",
"           $)              $)              $)              $)   ",
"~               ~               ~               ~               ",
"      ;       ,       &       ,       ;       ,       &       , ",
"   &   &   &   &   &   &   &   &   &   &   &   &   &   &   &   )"};
