/* XPM */
static char * 5_xpm[] = {
"64 64 251 2",
"  	c #020404",
". 	c #020304",
"+ 	c #020204",
"@ 	c #0A0A0B",
"# 	c #020403",
"$ 	c #030402",
"% 	c #050403",
"& 	c #040302",
"* 	c #050503",
"= 	c #020402",
"- 	c #030504",
"; 	c #040402",
"> 	c #040502",
", 	c #030204",
"' 	c #09080A",
") 	c #040204",
"! 	c #030405",
"~ 	c #192725",
"{ 	c #030404",
"] 	c #090905",
"^ 	c #050706",
"/ 	c #020505",
"( 	c #040505",
"_ 	c #0A0A09",
": 	c #332521",
"< 	c #060605",
"[ 	c #030502",
"} 	c #050605",
"| 	c #060705",
"1 	c #030505",
"2 	c #020405",
"3 	c #09090A",
"4 	c #040203",
"5 	c #050603",
"6 	c #030506",
"7 	c #040202",
"8 	c #070806",
"9 	c #0D0806",
"0 	c #170F0D",
"a 	c #060603",
"b 	c #060704",
"c 	c #060C09",
"d 	c #040807",
"e 	c #07090D",
"f 	c #0A0E11",
"g 	c #050606",
"h 	c #030503",
"i 	c #060708",
"j 	c #080706",
"k 	c #080707",
"l 	c #060706",
"m 	c #090807",
"n 	c #382824",
"o 	c #050303",
"p 	c #0B0A0A",
"q 	c #1B1811",
"r 	c #2E2A1D",
"s 	c #070406",
"t 	c #050305",
"u 	c #120A0A",
"v 	c #060503",
"w 	c #020305",
"x 	c #0A080A",
"y 	c #040607",
"z 	c #050504",
"A 	c #040403",
"B 	c #060303",
"C 	c #070404",
"D 	c #070505",
"E 	c #050302",
"F 	c #020503",
"G 	c #040507",
"H 	c #040205",
"I 	c #0B0A0B",
"J 	c #060403",
"K 	c #0C0D0E",
"L 	c #030305",
"M 	c #090808",
"N 	c #301E29",
"O 	c #040305",
"P 	c #060604",
"Q 	c #060806",
"R 	c #030706",
"S 	c #090707",
"T 	c #040603",
"U 	c #23151C",
"V 	c #040704",
"W 	c #030403",
"X 	c #0A0A08",
"Y 	c #070704",
"Z 	c #050304",
"` 	c #372427",
" .	c #040503",
"..	c #14211C",
"+.	c #14211D",
"@.	c #21291A",
"#.	c #0B0606",
"$.	c #020504",
"%.	c #0B0D0D",
"&.	c #060707",
"*.	c #040604",
"=.	c #070807",
"-.	c #060304",
";.	c #223530",
">.	c #15221E",
",.	c #1F2316",
"'.	c #060807",
").	c #050707",
"!.	c #030604",
"~.	c #070705",
"{.	c #040504",
"].	c #040406",
"^.	c #050906",
"/.	c #080908",
"(.	c #050406",
"_.	c #040306",
":.	c #090909",
"<.	c #070909",
"[.	c #050404",
"}.	c #040606",
"|.	c #040304",
"1.	c #060507",
"2.	c #050506",
"3.	c #080609",
"4.	c #070608",
"5.	c #1F3028",
"6.	c #0B1109",
"7.	c #060B07",
"8.	c #040407",
"9.	c #0B0B0A",
"0.	c #2C1C2C",
"a.	c #030406",
"b.	c #030205",
"c.	c #070504",
"d.	c #0B0C0C",
"e.	c #040605",
"f.	c #070908",
"g.	c #332029",
"h.	c #0D0D0C",
"i.	c #070507",
"j.	c #080607",
"k.	c #24372D",
"l.	c #050502",
"m.	c #030304",
"n.	c #0B0C0B",
"o.	c #090B0A",
"p.	c #070808",
"q.	c #050205",
"r.	c #020205",
"s.	c #0B0B0D",
"t.	c #030603",
"u.	c #050204",
"v.	c #040806",
"w.	c #080A08",
"x.	c #050405",
"y.	c #0C0D0D",
"z.	c #0B0B0C",
"A.	c #060407",
"B.	c #050604",
"C.	c #030703",
"D.	c #080909",
"E.	c #080608",
"F.	c #030606",
"G.	c #060607",
"H.	c #060406",
"I.	c #050203",
"J.	c #070809",
"K.	c #050507",
"L.	c #040307",
"M.	c #070606",
"N.	c #050607",
"O.	c #040808",
"P.	c #030306",
"Q.	c #060404",
"R.	c #070607",
"S.	c #241621",
"T.	c #291A25",
"U.	c #0C070D",
"V.	c #1A2A22",
"W.	c #0A090B",
"X.	c #312335",
"Y.	c #0B0A11",
"Z.	c #0B050A",
"`.	c #0C060A",
" +	c #18111B",
".+	c #040804",
"++	c #060408",
"@+	c #060405",
"#+	c #0F1111",
"$+	c #192128",
"%+	c #030605",
"&+	c #040405",
"*+	c #0D0D0E",
"=+	c #07060B",
"-+	c #090B0B",
";+	c #080A09",
">+	c #040506",
",+	c #192327",
"'+	c #203232",
")+	c #05060A",
"!+	c #060808",
"~+	c #182526",
"{+	c #223523",
"]+	c #0A0809",
"^+	c #070706",
"/+	c #080806",
"(+	c #09100A",
"_+	c #15101A",
":+	c #0B080F",
"<+	c #050407",
"[+	c #040608",
"}+	c #223424",
"|+	c #0D1617",
"1+	c #070708",
"2+	c #040707",
"3+	c #060B0A",
"4+	c #2B2D1D",
"5+	c #040705",
"6+	c #203132",
"7+	c #08090A",
"8+	c #070D0C",
"9+	c #060703",
"0+	c #050704",
"a+	c #080809",
"b+	c #080509",
"c+	c #080709",
"d+	c #0C0B0C",
"e+	c #080A0A",
"f+	c #1D2E26",
"g+	c #0A0C0B",
"h+	c #050306",
"i+	c #1B282B",
"j+	c #0A0B0B",
"k+	c #0B0A09",
"l+	c #060608",
"m+	c #09090B",
"n+	c #1C2C20",
"o+	c #090A09",
"p+	c #080807",
"q+	c #0C0D0C",
"r+	c #08080A",
"s+	c #09080B",
"t+	c #252938",
"u+	c #0C0C0D",
"v+	c #050509",
"w+	c #050907",
"x+	c #171B25",
"y+	c #0C150D",
"z+	c #070506",
"A+	c #1E302E",
"B+	c #333020",
"  . + @     # $ % & % * = = $ = - # = = ; ; > $ = # # # #   . . + + + . . , , , ' ) ) , + !   ~ { # = ; ] ; & ; $ = # ^ # # /   ",
"  + + . . (   = _ & : < ; ; ; $ [ } $ $ ; ; ; & ; $ | $ = = # 1 2 3 . . + ) ) ) ) ) 4 , .         # = $ ; ; ; 5 = = # #   #     ",
"6 . + + +     = ; 7 7 7 7 7 & ; 8 $ $ > ; ; 9 0 7 & ; ; ; a b c d   . ! + ) ) ) ) ) ) , e . f . g # = = $ ; ; ; h $ = # # #   6 ",
". + + + i .   = ; j 7 7 7 7 7 k ; l $ ; m & n o 7 p & ; & q r ; $ # { . + , ) s t ) ) , + . 6     # # = $ & & ; $ $ # # # #     ",
". + + + + .   = ; & 7 7 7 u o & ; $ $ & & & v 7 7 7 7 7 7 7 & ; $ = ( w , , , ) x 4 ) , + 6   y   # = = ; & & ; z $ = # # # #   ",
"  + , , +   # = A 7 7 7 7 B 7 & ; ; $ & 7 & & & 7 7 C D 7 E ; $ h F 1 G , , , H ) 4 ) I + . . .     h $ ; & J & ; ; $ = # # = # ",
"  K + L 1   # $ & 7 7 7 7 7 & ; $ $ $ ; & 7 7 M 7 7 7 7 & ; ; $ = #   . , , , , ) 4 ) N O + + . i   # = ; P & & & ; $ Q = = = # ",
"    . . . R # = ; & S 7 ; ; [ $ T $ ; ; ; & & & & & 7 & ; ; ; ; P $ #   . , ) ) ) 4 4 U ) + + . .   # $ ; ; & & & ; $ = V # = # ",
"        { # # W ; & & ; [ $ = = = = = $ $ $ $ $ ; X & & & % Y ; ; $ =   . ) ) Z 4 o ` 4 , + .     h  .; * ; ; & % ; $ = = # = # ",
"      # # # # # $ ; ; = ..+.# # # # # = $ = = = = @.v & & & ; ; ; $ =   . , 4 4 7 7 #.4 , .   $.# = $ ; ; ; ; ; ; $ = h #   # # ",
"# #   # = = = # = $ < $ #     %.# - &.*.= =.= = = 5 ; j & & & & & 8 #     . , 4 -.7 4 4 , . ;.>.= =  .; ; ; ,.$ = # #       '.# ",
"# = # # = = = = = $ ; $ #     ).- 1     = = = = = $ ; ; & & & 7 & $ = !.#   + , s ) ) ) , . # = $ ; ; ; ~.* h # #   (   . .   # ",
"# = #   # = $ $ $ $ ; = #     . . L + .   # = = = {.; ; & & & & ; $ = = # # . L , + + + .   = $ ; ; & ; ; $ #       . 6 . ]..   ",
"# #     &.=.; ; ; ; $ =     w + + + + + .   - ^.= = ; & & & 7 7 ; /.= # # #   . + . . .     = $ ; ; & & ; h       . . + + (.+ . ",
".       # $ ; & & & ; = #   . + , , , _.+ :.  $.  = $ ; ; 7 7 7 ; = # #     <.. . . .     # = $ * & & ; $ =       + + , , , , + ",
"+ .     - $ ; [.7 7 ; $ = }.. , ) |.t 1.+ .       # = $ ; & 7 & ; = # #     ! . . . ).  # # = $ z & & b $ =     ! 2.L , ) ) 3., ",
"4.! . &.5.= ; o 7 7 ; 6.7.. , ) , , ) , 8.+ . .     # = ; & & & & $ #     . . . . . # = = = = $ ; ; ; 9.= =   . . + 2., ) 4 0.) ",
", + . .   = ; & 7 & ; =   a., ) , , , , + b.+ + .   # = /.& & c.& $ h F     .   d.e.= $ $ $ $ $ $ $ - f.#     1   ! (., ) 4 g.) ",
") , + .   = $ h.; & ; #   + ) ) i.) ) , , ) , + + .   # = ; & & & ; $ = #       # h $ $ ; ; ; $ = # e.1 # }.. . . . + , ) 4 Z j.",
") ) , , .   = = $ ; $ # . L ) ) , ) ) , ) ) ) , + + .   k.$ ; ; l.$ $ $ # # #   h $ $ ; ; ; ; ; h         . + + m.. . , ) ) ) ) ",
", ) ) , , .   # = = = = -   + 4., , , , , ) ) , + + .   F $ ; $ $ $ = = # # #   = ; $ ; > n.$ } o.    p.. + , , , + + ) ) ) , , ",
", , q.) ) + . .     f.# # #   . + m.+ L , , + r.s.+ 6   # $ $ = !.= t.= = h W e.= $ $ = = = = = #     . + , ) ) u.) ) ) ) , , , ",
"]., ) ) ) , . . }.  # v.# # #     . + + + , , , , + 2   w.h = # # # h = = = = = = e.# # #   # # # # . + ) ) 4 4 4 4 4 x.4 ) , + ",
"+ , ) , , + .           # = = # # y.. z._.A.) , , +     # #         # = B.C.= = #             D.#   + , E.) Z 4 4 |.4 7 7 4 , + ",
"+ + , + + + .   #   ).F.F = = = # 2 + L G.O ) ) H.+ + 1       2 2   # l = = $ = #   ! + + + . .   . + + , ) ) 4 4 4 4 I.B 4 L + ",
"+ + + + + . .   #     # # # #   p.. ].J.+ ) 4 ) ) , + . . +         # = $ B.= = # 1 K., , , + L . L.+ + , ) ) 4 7 4 7 E M.4 , , ",
", + + + + . N.O.# #   # # # #     . + . + ) ) ) ) ) , , , +   #   # = = $  .$ = #   . + + , P._., , + , , ) t 4 4 4 7 7 Q.4 ) , ",
", +     . . F.          ^ # '.}.w w + + 1., ) ) ) ) R., , +   # e.= $ = $ $ $ = h #     . + 8.8.) , + , , ) ) ) ) S.T.o 4 4 ) , ",
".   ( #     . .               . . N.+ , ) t ) ) ) ) , U., .   # h =  .= *.$ $ = V.1   . + + W., ) X.b.Y., ) 4 ) ) Z.`.4 M ) , + ",
". '.*.#   . + .   . . !   . + . . w + L , ) ) , ) ) ,  ++ +   # Q h h = .+= = = &.  2 . + ++H , ) H L + L , H ) ) ) ) @+4 ) + + ",
"( # #   . + + + . . . . . . . . + + . + + , , + , , , , + + . #+# F = = /.= # #     $+. + b.H , |., + + + . m., , , ) ) ) ) + . ",
"$.%+#   . + , &++ + + + + + *+. + L . a.+ . . + + + , ) , + + .     = = [ #       . . . + , ' 8.=+G . + + . + + + + , , , , +   ",
"( - ^   . + + + + + + , + . . . + + i w . { 1     ! , , + K..       = = V #       #   . + + . . . . . . + . + + . . + + + + m.-+",
"  # = -   K.! + + + + + 2     . . + .       ^   1   . . .           # ;+= # #   # = e.  &.1                   . . . + + + + >+  ",
"# # = = $.1 . + + , + +         . .     #   # # # #     # # #       # F = # # = = = = #                   #       . + m.. {     ",
"= h = = = # . + , , , . ,+              # # %+# # = # # = = #         # = = = = = = #     6 . ).}.  # # = = # %+  + + P.. /   # ",
"$ $ $ = =   . , O , , , . &.'+  ).# # # # # # # '.# # h $ $ = !.-   # # # # - # # } #   {   J.    ;+= $ $ $ #   . . . )+.   e.= ",
"8 ; ; $ =   . + , |.) , + m.6     # # = = # # = # # = = $ $ $ # !+    # #   1   # #     + .   1 # = $  .B.5 = # F.~+    # # = 8 ",
"$ ; ; $ =   . , ) ) ) ) , L .   # # %+# # # = = l # = $ $ $ = #           2     {   . + + . .   # $ ; % & ; $ # {+- $.# = $ h $ ",
"= ; ; $ W   m.) 4 ]+) ) , P.. .         # - = #     = $ $ $ #       . 3 . .     . . L + + + .   ^ $ ; & & ; $ h !.h = = $ $ $ = ",
"= $ $ = #   &+) ) ) ) ) , + + . y.    ).# # #   <.  # = $ = # 2 . + , , + + . . . + m.+ + + N.  # = ; ^+; /+$ = = =.= /.$ $ $ $ ",
"$ = F = =   w , + + , , , + + + .     # (+# # # -   # # #   . + , ) ) _+:+, O + + + , , <++ [+  - = ; ; ; $ /.= = = $ = = t.$ $ ",
"$ t.}+= = # . + + . |+1+. + + + + .   # Q # - ^ = #     2+. + , 4 4 4 @+) ) , , + + , , , +     3+= ; 4+$ $ $ $ = $ = = = = = $ ",
"$ = 5+l = # . . .   6+    . 7+N.+ . 2+8+# # # # # #     . + , ) 7 7 7 7 4 4 ) ) , , , ) , .     # W $ ; 9+0+$ $ $ $ $ = # # = = ",
"= = # # #     . R # # #   .     . . + y.  1   # # #   . . , ) 4 4 7 o 7 7 4 4 ) ) ) , 1+a+  $.# # = $ ; ; $ = = $ $ $ = C.# # = ",
"Q # - # # # f.  = [ = = # #       . + + + + . &.    . a.. , , ) 4 4 7 7 7 4 ) b+x.t m.+ .   # # # = $ $ $ #   # $ ; $ $ = # # # ",
"# # # # F !.= $ $ $ = = = = = = #   a.8.c++ + . . . + + z.P.O ) 4 4 4 4 7 ) , , , , +       # # = # = = #     # = ; ; ; = = # $.",
"# = # # # = $ ; ; ; $ h $ = $ $ # # 1   . + + , + + + + + + , d+4 ) ) ) @+, + , , , . e+# # = = = = = =   .     # $ ; $ = = # # ",
"      # = } ; & & ; ; ; ; $ |  .= # f+%+  . L . , + , , , , ) ) ) t , ) ) 1., , , + .   # = $ $ $ = =   . .       } $ $ = # #   ",
". + .   g+= $ ; A ; ; ; ; ; $ $ = = - #   1 . . . , , , , , , , , , , h+) , , ) , O .   1 = $ $ $ = #             # = $ = $.    ",
"J.+ a+.   = $  .; ; ; ; & ; $ $ $ = # #         . + , ) ) , , + , , , ) ) H ) , , + . . i+# = $ $ $ = # j+'.F.  .   # = # -   . ",
"+ + + . . # = * ; & & 7 E ; l = = = #   . 2   . + + , , ) , , , , , , ) ) , , + + . . .   # = = = | = = #       . . .         . ",
"L , , + + . = $ ; & & k+& ; = = = = # { .     . + . + , , + + ) , , , ) , , + .     # # = *.= = $  .} =   .   w + + + 2   . L + ",
", h+, + + . # $ & & 7 & ; $ = ^ # e.#             . . + + + + , , ]., , , , , .   # t.= = = = $ $ $ = #   . . . + , (.l++ + , , ",
"H , , + + .   = ; k & ; ; $ !.- !.= # # g # h # #     . + m++ + + + , , + , + .   - n+= = = = = o+= = # . + + + + , , ) ) |.' , ",
"m.+ + + + .   # $ p+; $ = h # -   '.# # ( q+= = #   . . + L + L + r+, s+&++ .     # - = = # h # # # -     2., , + P., ) 4 4 ) ) ",
", + + + . .   {.$ ; $ = = # #         #   # = = #   a.t++ L + + + 2., + + + .   $.# # # # # # # #       . w + u+. + , ) 4 4 4 ) ",
"+ G . . >+  # = > $ = # = = # 1 .       # = = =   . . J.. + + 7++ + , + + , G..           # $.#           [+. . ( G., ) ) ) ) ) ",
"8.N.    (   = $ ; $ = = = = #       # e.# = = g   . + + + v++ + + + + + 1., , &+. . . i .   w+                    . + , ) , , , ",
"x+        # = $ ; ; $ = = = # D.      # = y+= #   ].+ ].b., , , + i + + , , , , + . . . . .     .     # # # #       + + + + + . ",
"        # = $ $ ; $ Q = $ = $.    a.  - F # # #   + , , ) |.) , + 2 . . + , E., + + + + + + . .     # = = = = '.#     . .     . ",
"    - 5+= = = $ ; $ = # # # e.e.      # # # # #   . + ) t z+) , + . . . + , , , , , O + + + + .   # = /.> * ; $ = # $.    #     ",
"      # # # = $ ; ; $ = # # # #     # # # =.= #     G., ) ) ) h+, + + + + + , ) ) ) , + + + +   # l = ; ; ; & ; = #   #   # #   ",
"    .     o.# $ ; & ; $ # # l #     # # $ = = = #     . + + + _., + + w + + + , ) ) ) , + + . A+# = [ ; B+& & & $ o+=.# # = #   "};
