/* XPM */
static char * 6_xpm[] = {
"64 64 251 2",
"  	c #040506",
". 	c #020204",
"+ 	c #09090A",
"@ 	c #040204",
"# 	c #040203",
"$ 	c #1C1112",
"% 	c #040202",
"& 	c #050303",
"* 	c #030204",
"= 	c #050204",
"- 	c #040305",
"; 	c #07070C",
"> 	c #020404",
", 	c #020403",
"' 	c #070908",
") 	c #020304",
"! 	c #060708",
"~ 	c #050706",
"{ 	c #030502",
"] 	c #040503",
"^ 	c #070605",
"/ 	c #030402",
"( 	c #030406",
"_ 	c #3A2626",
": 	c #060303",
"< 	c #040304",
"[ 	c #030304",
"} 	c #060607",
"| 	c #030505",
"1 	c #030405",
"2 	c #040504",
"3 	c #040402",
"4 	c #12141D",
"5 	c #020405",
"6 	c #090A0A",
"7 	c #08080A",
"8 	c #020402",
"9 	c #060404",
"0 	c #070505",
"a 	c #05070A",
"b 	c #0B0909",
"c 	c #020504",
"d 	c #030504",
"e 	c #040605",
"f 	c #020503",
"g 	c #030506",
"h 	c #040302",
"i 	c #080404",
"j 	c #050202",
"k 	c #060405",
"l 	c #030305",
"m 	c #030503",
"n 	c #080907",
"o 	c #0A0C0B",
"p 	c #060C0B",
"q 	c #040705",
"r 	c #080505",
"s 	c #030604",
"t 	c #030607",
"u 	c #070806",
"v 	c #040406",
"w 	c #0B0B0C",
"x 	c #080606",
"y 	c #020305",
"z 	c #040505",
"A 	c #060507",
"B 	c #0A0908",
"C 	c #030404",
"D 	c #050707",
"E 	c #281A2A",
"F 	c #1B111D",
"G 	c #050502",
"H 	c #070606",
"I 	c #0B0C0B",
"J 	c #050605",
"K 	c #050404",
"L 	c #040502",
"M 	c #020505",
"N 	c #160D17",
"O 	c #0B060D",
"P 	c #050403",
"Q 	c #040403",
"R 	c #060504",
"S 	c #1E2C2E",
"T 	c #070808",
"U 	c #030205",
"V 	c #050606",
"W 	c #050402",
"X 	c #080707",
"Y 	c #050302",
"Z 	c #140C0C",
"` 	c #2C2335",
" .	c #0B0B0A",
"..	c #110909",
"+.	c #090808",
"@.	c #080706",
"#.	c #080807",
"$.	c #060608",
"%.	c #030606",
"&.	c #070506",
"*.	c #050406",
"=.	c #2C3623",
"-.	c #070404",
";.	c #0A0B0B",
">.	c #040205",
",.	c #080709",
"'.	c #040408",
").	c #040607",
"!.	c #030403",
"~.	c #050604",
"{.	c #070A05",
"].	c #181C11",
"^.	c #090707",
"/.	c #050306",
"(.	c #050A0A",
"_.	c #192028",
":.	c #030706",
"<.	c #060505",
"[.	c #050503",
"}.	c #040606",
"|.	c #1E2E2E",
"1.	c #040405",
"2.	c #070807",
"3.	c #070706",
"4.	c #050305",
"5.	c #050203",
"6.	c #070608",
"7.	c #090807",
"8.	c #060306",
"9.	c #040609",
"0.	c #050705",
"a.	c #191C27",
"b.	c #060807",
"c.	c #271F31",
"d.	c #060506",
"e.	c #040407",
"f.	c #050307",
"g.	c #070907",
"h.	c #1F2F1E",
"i.	c #040306",
"j.	c #070809",
"k.	c #070D0D",
"l.	c #0F0808",
"m.	c #080908",
"n.	c #020502",
"o.	c #0B0A0A",
"p.	c #0F1910",
"q.	c #3B293F",
"r.	c #030605",
"s.	c #110E09",
"t.	c #050405",
"u.	c #070607",
"v.	c #05060A",
"w.	c #090B0A",
"x.	c #070708",
"y.	c #1B1015",
"z.	c #040704",
"A.	c #060509",
"B.	c #080607",
"C.	c #040507",
"D.	c #233037",
"E.	c #172525",
"F.	c #0B070D",
"G.	c #060406",
"H.	c #040604",
"I.	c #050506",
"J.	c #0A090A",
"K.	c #050304",
"L.	c #070507",
"M.	c #1B1D2A",
"N.	c #2C1C27",
"O.	c #2C2539",
"P.	c #040307",
"Q.	c #141420",
"R.	c #060508",
"S.	c #060305",
"T.	c #040303",
"U.	c #050607",
"V.	c #0B0C13",
"W.	c #1E302F",
"X.	c #10100F",
"Y.	c #080809",
"Z.	c #050507",
"`.	c #050407",
" +	c #070709",
".+	c #050708",
"++	c #030306",
"@+	c #050408",
"#+	c #060707",
"$+	c #080608",
"%+	c #060706",
"&+	c #0B0A0C",
"*+	c #020205",
"=+	c #0B0C0C",
"-+	c #0A0B0A",
";+	c #273A35",
">+	c #070C0B",
",+	c #060808",
"'+	c #222E35",
")+	c #080909",
"!+	c #070A08",
"~+	c #080A09",
"{+	c #0F0E0F",
"]+	c #090A09",
"^+	c #060705",
"/+	c #070B06",
"(+	c #050804",
"_+	c #040707",
":+	c #030603",
"<+	c #080F09",
"[+	c #060604",
"}+	c #030704",
"|+	c #060A0B",
"1+	c #080604",
"2+	c #0A0A09",
"3+	c #050504",
"4+	c #2B1E1B",
"5+	c #050A06",
"6+	c #233626",
"7+	c #040603",
"8+	c #080E0C",
"9+	c #0C0D14",
"0+	c #070503",
"a+	c #060503",
"b+	c #0E0C0C",
"c+	c #383225",
"d+	c #070705",
"e+	c #060603",
"f+	c #080805",
"g+	c #060806",
"h+	c #19160F",
"i+	c #353022",
"j+	c #050603",
"k+	c #1C2D29",
"l+	c #0C0A0A",
"m+	c #15221F",
"n+	c #251818",
"o+	c #0A120B",
"p+	c #07060A",
"q+	c #15231E",
"r+	c #08060C",
"s+	c #090B0B",
"t+	c #040706",
"u+	c #050704",
"v+	c #07050A",
"w+	c #080509",
"x+	c #060403",
"y+	c #070B08",
"z+	c #243538",
"A+	c #070504",
"B+	c #150C15",
"  . + @ # $ % % % & % % @ * * @ # % # # # = = - . . ; . > , ' > > ) . . . ) > , > > ) ) ) ! ~ { ] % % % % % % % % % % ^ / , > > ",
"( . * @ % % _ % % : & # @ * . . - * * < @ @ @ * [ ) ) > , , , , , ) ) . . } > | > ) ) 1 ) > 2 3 3 % % % % % % % % % % % / , >   ",
"4 . @ # % % % % % % % # @ * . ) 5 ! ) ) . * * ) > > > , , , , , , 6 ) . 7 . ) > ) > > ) ) > 8 ] 3 9 % % % 0 % % % & % % 3 , ) a ",
") . @ @ % % % % % b % @ * . ) c , d , , ) ) ) > , , e , , , d f > ) ) ) . . . )   > > ) . g , 8 / 3 h % i j % % & % % % h 8 , > ",
"| ) * @ @ # k % % % @ * l ) > 8 m 8 n 8 , > > o , , , , e p q c > ) . ) . . . . ) ) ) ) . ) > > , 8 h % r j % % % % % % h / 8 , ",
"s t . * * @ @ # # @ * ) > , / ] h h 3 u / 8 , d 2 8 , , , > > > > . . . . . v . . ) ) ) w * . ) ) > / 3 h h % % % % % % h 3 / 8 ",
"{ , ) . . * * * * . ) > , / h x % % h / / / 8 8 8 8 m , > > ) > > ) ) . . . y . . . z . * A * . . > 8 / 3 3 h % % % % % % h / / ",
"/ , > > ) > ) ! > > > m / 3 & % % % h B 3 3 { 8 8 8 8 C > ) D , , > > ) ) ) . . . . y ) . * E F . > , 8 / G h h H % h h & % h 3 ",
"] 8 8 8 8 8 I , J 8 8 ] 3 h & % K % h h h L 8 , c , , M . . ) > , > > ) ) ) ) ) [ ) ) > ) . N O . 1 > , 8 / 3 ^ P h h % % % ^ 3 ",
"/ / 3 3 3 3 3 Q / / 3 h h h % % % % R % h 3 8 > > S > ) . l ) > > > > > > T > | > > > ) ) . * @ * U ) V , 8 / / / 3 h % % % h 3 ",
"3 3 h % % % h 3 3 h W X h h Y % % & % % ^ 3 8 > ) . * @ @ @ * l ) > > > g > > , , , > ) ) [ * @ @ * ) > , 8 8 / / 3 h % h h h 3 ",
"3 h % % % % % Y % h h h % % % % : Z % 3 3 / 8 > ) l @ # # @ @ . .   ) ) > > J 8 8 8 > ) [ * @ @ @ ` . > , 8 8 8 / 3 3 h h 3 3 3 ",
" ...% % +.% % % @.% h % % % % % % #.3 / / 8 , > . @ % % # # @ * . . . $.) > , , , , %.a * * @ # &.*.. ) > 8 8 / / n 3 3 3 =.3 3 ",
"h -.% % % % % % % & h % % % % % h 3 8 , , ;.> . >.# % : % % # @ . . . . . ) > , , > ) . . * * @ @ ,.'.) )., 8 !./ / / 3 ~.{.].3 ",
"% H & % & ^.% % % % % h h h 3 3 / 8 , C ) ) ) @ # % % % % # # @ /.U . . . . ) > (.> ) ) . ) . . * * . . _.> , 8 8 / / / / / 3 h ",
"% % % % % % % % % % % h 3 3 / 8 , > ) > . . * < % % % # # # # @ * . . ) . ) ) > :.5 ) ) ) ) ) . . . . . . ) > , , 8 / / / 3 h % ",
"% % % % % % % <.% % h h [.3 8 > ) ) ) . * * * @ # # # # @ * * . . . ) }.> > > , , |.) ) ) ) ) ) . . A 1.. ) | , > , 8 2.8 3.h Y ",
"% % & % % % % X % % <.3 / !.e 5 . . . * @ * * 4.@ @ # 5.6.. . ) ) ) ) ) > , > > , > C ) 1 > > ) ) . * * . . ) > > , 8 8 / 3 3 h ",
"7.% % j % % % % : % % 3 / , ) ) . . * 8.@ * * * * @ # @ * . ) | > ) ) ) , , , > > > > > > > 9.. . @ /.* . . . ) > , 8 8 m / 3 3 ",
"% % % % % % % H % % % 3 8 > ) | ) . . 4.@ * U * * * @ /.. ) ) , , > > | , 0.8 ' > > , , > > [ * @ @ @ * l a.) > , , 8 / / / 3 h ",
"% & % % % % % & % % % h !.b., !., > . * @ c.v * d.@ * e.) ) > , 8 , , , , 8 8 , , z , , > > ) * # @ @ @ f.. ) > , 8 8 L / 3 3 h ",
"% % % % % % 9 % % % % h 3 8 8 g.h.> ) . * i.* * @ @ * j.) > , 8 8 8 8 / / 8 / / 8 8 , , k.) . @ # 9 # @ @ * . ) > / 3 L 3.h P % ",
"h l.% % % % h 3 [.h h 3 3 / m./ n., ) . . * * * @ @ d.. > , , , 8 I 3 Q 3 3 3 3 / m.8 d %.) * @ o.% % # @ @ * . > 8 3 3 3 h h h ",
"Y h h h h h 3 3 [.h h h 3 3 8 8 p.> ) . . . * q.@ @ * . ) > , r., 8 / / h s.3 3 / / 8 8 > ) . @ # % & % t.@ * l > J 3 3 3 3 3 3 ",
"3 3 h h h W 3 / 3 3 3 3 3 / 8 , , > ) . . * u.@ 8.@ * . ) > , > , 8 8 ] h h ^ h 3 / 8 , > ) . * < # % % # @ . ) ~ 8 3 3 / / / / ",
"/ 3 h h h 3 / / / / / / 8 8 , > > > ( v.* * - @ @ @ * ) ) > > > > , !./ 3 3 h 3 3 / 8 , > ) . * @ = % % # * ) C , 8 / / / 8 8 8 ",
"/ 3 h h 3 g.8 8 8 8 8 8 8 , w.) > > ) . U x.* @ @ @ * . ( > > > > > }., 8 8 / 8 / / / d e > [ * = y.% % @ * . > , 8 8 m 8 , 2 8 ",
"/ 3 3 / 2 z.> > ) > , z.m , > g ) [ . . . * l U * * * . . ) > > , > > > > , , , 8 / 8 2.}.> ) A.@ # # B.* * . | > f 8 / 0.8 8 8 ",
"/ 3 / J > C ) * l . > , , >   . . . * * * * @ 4.@ @ @ * . . C.D.d > > x.g > > , , 8 8 , > > ) * @ @ # 4.* * ) E.> 8 8 / 8 8 J / ",
"/ / 8 , 1 ) . @ @ * ) 1 ) ) . * * * @ @ t.* t.@ @ @ @ @ * * . 1 ~ e > ) ) > V , , 8 8 8 > ) . F.@ # @ @ * . . ) > , 8 / / / / 3 ",
"8 , > ) . w * @ @ * . . . * * * * d.* * t.@ @ @ * * * * . . . > , , > ) 1 ) > | 8 8 8 , > . - G.@ # 9 # @ * . . ) > 8 H.m / / / ",
"c | > . * G.@ @ @ @ * * * @ @ * * * f.* - d.* * * . I.) ) . ) > , , > > > > > , m L 8 , ) . * J.# # # @ u.* U . ) 1 , 2.n.f , , ",
"( ( . * @ K.# @ @ @ @ @ @ @ L.@ * * U * * @ * * * . . ) ) ) ) > > > , , , d , 8 / / 8 , ) * @ @ K.# k @ @ * U . ) > > 8 8 > ) ) ",
"M.* * @ # # # # @ @ @ K.N.@ @ @ @ @ * * * O.P.* . . ) . . . . ) > > , , , m 8 8 / / / , ) Q.6.* @ @ @ # # @ l w   z > , , > . R.",
". . * @ @ @ # S.@ 4.T.k # @ @ @ @ @ * * . . * . . . . U.v * P.. ) > , 8 m / 8 8 8 ~.8 , > V.* 6.* * @ @ # @ * . 1 W.> , > ) . . ",
". . . * @ @ @ @ @ @ # @ @ * * @ @ U 1.l . . . .   . . . . * U * . ) , / X.3 8 8 8 / 0., U.l * . * i.* @ # < 4.* . g > , , ) Y.. ",
"Z.. . `.* @ @ @ @ @ @ - - . . * * . *  +) 5 ) ! .+++1.. . * *.* . > , / / / 8 8 8 8 , g ) @+* * . . * * @ # @ * . #+> , , > ) 1 ",
". . . . . . * * ,.* * 1.y ) . . . . . . ) y ) ) ) . . . . @ $+i.) > %+/ / 8 , , 8 8 , V ) ) . * . . . * @ = @ U ) ) > , s > ) . ",
". . ) ) ) y ) ) . * * &+y ) ) ) > > ) ) > ) ) ) . *+. * l @ @ * ) > , 8 H.8 , , 8 , , | ) ) * l . ) ) ) ! . * . =+) > , -+> ) . ",
") > > > ;+> >+,+) . . . . '+) ) > , , )+> > > > ) y . * @ 4.@ * . ) > , 8 8 8 8 8 8 > ) ) . . . ) c e !+q > 1 ( ) > , , , ) ) ) ",
"> ~+, 8 8 8 s > > ) ) . ) U.> > > 8 8 , > > , , > ) . * @ @ {+@ * . > , , 8 8 8 8 , | ) ) ) > ) > , , / m z V , , , m 8 , > ) | ",
"> , 8 8 8 / 8 , > > > > > > > , m 8 8 , | e , , > ) . . * @ ,.@ * . > , , 8 ]+8 , ) ) ) U.C 1 > , , 8 m , , 8 8 / ^+/ 8 , , > > ",
"| , 8 8 8 8 8 , > > , , , > , , , 8 /+(+q , 2 , q , > I.. l - * . ) > %._+8 8 , > ) ) ) ) g > , , 8 / / 8 m 8 3 3 3 3 ] :+, , _+",
"> , 8 8 / 8 , > , , 8 , , , 8 8 , 8 ] { <+H.8 , , 8 c z > > ) ) > > > ) > > , 8 , , > ) ) > , 8 2.]+/ 3 3 3 3 h h h 3 [+!., , > ",
"8 8 8 8 / 8 , > > > , d , , , , , m / / / / !.8 8 m }+f f , 8 , > > |+) ) 5 > > , , , > d > , f 8 8 8 / [.h h h 7.h h 3 / , 8 8 ",
"/ / / / / d > > > > , , , > , 8 8 8 / 3 1+/ 8 8 8 8 8 8 8 8 8 8 , > > . Y.) ) ) > , , , , , , 8 / m 8 8 ] 2+h H h h h 3 3+0.8 8 ",
"/ / 3 3 L , , | ) > , , > , , 8 8 8 / W 4+h / 8 / / 5+6+8 , 8 8 , > > C.l . l v > , o , 8 8 8 J / / 8 / 3 h @.% % % % 3 3 / 7+/ ",
"h W h 7./ , , 8+> > , , , b.8 8 , / 3 & % h / / / 8 8 m , , 8 8 , > }.  y . ) 9+( > , , 8 8 8 / / / 8 / 3 h % % % % h h R h h h ",
"% h h 3 / 8 8 / / , , 8 8 , , 8 / 3 3 h h h 3 / / m 8 , > f 8 8 > > > > ) > 5 ( . > > > , 8 8 8 8 8 / / 3 h % % % % % h % % & +.",
"% 0+h 3 / 8 / 3 3 / / 8 8 8 8 2 3 3 h Q a+3 3 / / { 8 , , , , , > t > > > , > . . > > , , 2.8 8 8 8 8 / 3 h % % b+% % % % % -.% ",
"h c+W d+/ / / L 3 3 3 / / m 8 8 3 3 h h 3 / / / / / 8 , 8 8 , }., > > > > > ) * A.1 > , 8 8 8 8 8 , 8 / e+h P h % % % % % % % % ",
"3 3 3 / 2./ ] 3 3 h h 3 / 8 8 8 / 3 3 h 3 / / / / / / 8 , 8 , , , > > #+) ) . * l *+) > 8 , 8 g.8 , , / 3 h W h % % % % % % % 3 ",
"/ / / / 8 8 8 / / ^ 3 3 / 8 ' , 8 / 3 3 R L / / 3 3 / 8 8 , , > > > > > ) . U * * . 1.5 > > 8 8 8 8 8 / f+W T.h % % % % % h 3 3 ",
"8 8 8 / / / / 8 g+[./ / 8 8 , , 8 !.] 3 h+i+3 3 j+3 / 8 , T > ) ) . ) | k+) . . . . ) > ,+> , 8 8 8 / / 3 h % % % l+% : % h / g+",
"8 8 8 8 8 8 8 8 8 / 8 8 , , d b.8 8 / 3 3 3 3 3 3 3 8 8 C ) l . . . ) | m+> ) . )   ) #+, e , 8 m / 3 3 W 7.% % % % & n+% h 8 , ",
", , 8 o+b., m , 8 , > > > c , c , , , 8 / / / 3 3 8 , , > ) . * p+. ) > r.> > ) g g %.> , , z., / G 3 h h % % % % % % % h 3 8 , ",
", , 8 , , ~ , > | > }.) ) > }.> ) ) > > > , 8 8 8 8 , ) ) . . * . . y > > > ) ) t | q+> > , , , m L 3 h % & % % % & % h 3 8 , > ",
", 8 8 , > > ) C ) > ) ) . ) ) ) . r+l . . ) ) > > > > ) . . l * . . ( ) ) ) ) ) ) s+t+V > > w., ]+L h % % % % % % % Y 3 u+:+, > ",
", 8 8 , > ) . ) ) V . . ) ) . v+* w+@ @ @ * `.) ) ) . . . . * * . . ) . . . ) ) ) b., , > > | m 8 3 h % % % % % % % % 3 / 8 , , ",
"8 m m , > ) . . ) . . . ) ) * @ # % % % # # 4.* . * [ * * * * @ * . U.) ) 1 1 ) ) > , > > > > , / x+h % % % % % % % % 3 / 8 8 8 ",
", , y+, > ) . *.* . . . . * @ # % % % % 0 % # @ * * * * * u.@ @ U 1.> > | ) z+> > > | > > , 8 / 3 A+% % % % % X % # % 3 / 8 f , ",
"C > w., > . * * @ * * * * @ &.% % % % % % % # B+- * * @ @ @ * * y > > > > > > , , > > }.> c , / 3 % % % % % % % & % & X / 8 f > ",
"> > > > ) . @ # # # # @ @ @ # % % % % % % % % @ * * * @ d.* . . ) > > > ).M > , r.> > ) . ) > 8 3 % % % % % & % % % K h 3+-+, > ",
"> ) ) [ * K.# % % 0 % % @ @ @ # % % % 5.% % # @ . I.`.- . ) ) ) > > > ) ) > > > > > ) ) . ) > 8 3 % % % % & % % % % 9 h 3 , , > "};
