/* XPM */
static char * 7_xpm[] = {
"64 64 265 2",
"  	c #000000",
". 	c #000103",
"+ 	c #020204",
"@ 	c #000104",
"# 	c #050917",
"$ 	c #05060A",
"% 	c #484F55",
"& 	c #010203",
"* 	c #000001",
"= 	c #081233",
"- 	c #000002",
"; 	c #050817",
"> 	c #070809",
", 	c #010101",
"' 	c #020101",
") 	c #0D1013",
"! 	c #010207",
"~ 	c #0C0F13",
"{ 	c #252C31",
"] 	c #070D1F",
"^ 	c #111319",
"/ 	c #04081C",
"( 	c #202D50",
"_ 	c #020202",
": 	c #060D25",
"< 	c #2A3A5F",
"[ 	c #010106",
"} 	c #1F242D",
"| 	c #000101",
"1 	c #020100",
"2 	c #030613",
"3 	c #01020B",
"4 	c #0A122A",
"5 	c #02030E",
"6 	c #040817",
"7 	c #030408",
"8 	c #000102",
"9 	c #010100",
"0 	c #1D1D19",
"a 	c #020304",
"b 	c #14171A",
"c 	c #06080A",
"d 	c #030406",
"e 	c #020306",
"f 	c #040811",
"g 	c #0C0801",
"h 	c #03050F",
"i 	c #1A1911",
"j 	c #020201",
"k 	c #090C0F",
"l 	c #060502",
"m 	c #010102",
"n 	c #02040C",
"o 	c #080B0F",
"p 	c #0E1013",
"q 	c #020203",
"r 	c #03050D",
"s 	c #000003",
"t 	c #030614",
"u 	c #17160E",
"v 	c #0C152D",
"w 	c #0C1117",
"x 	c #0A0907",
"y 	c #030405",
"z 	c #050914",
"A 	c #0A0A07",
"B 	c #616058",
"C 	c #151719",
"D 	c #131207",
"E 	c #070C19",
"F 	c #040100",
"G 	c #030304",
"H 	c #070603",
"I 	c #010204",
"J 	c #101519",
"K 	c #010000",
"L 	c #1E2B50",
"M 	c #171E25",
"N 	c #22200F",
"O 	c #706F50",
"P 	c #030301",
"Q 	c #030407",
"R 	c #11110E",
"S 	c #10161D",
"T 	c #6A757E",
"U 	c #06090E",
"V 	c #100F06",
"W 	c #131619",
"X 	c #040609",
"Y 	c #19180A",
"Z 	c #050912",
"` 	c #020510",
" .	c #0B1223",
"..	c #02040A",
"+.	c #02030B",
"@.	c #6C6A4C",
"#.	c #2E2C17",
"$.	c #101418",
"%.	c #040301",
"&.	c #0C1327",
"*.	c #22221E",
"=.	c #070A0D",
"-.	c #02030C",
";.	c #020308",
">.	c #171401",
",.	c #070C1B",
"'.	c #01030F",
").	c #071018",
"!.	c #151E2E",
"~.	c #050A1D",
"{.	c #060B1D",
"].	c #1D1C14",
"^.	c #1D2A48",
"/.	c #010208",
"(.	c #484E54",
"_.	c #21282E",
":.	c #070C17",
"<.	c #040717",
"[.	c #040403",
"}.	c #0C0E11",
"|.	c #07080A",
"1.	c #050A13",
"2.	c #020309",
"3.	c #242B30",
"4.	c #070A0E",
"5.	c #030716",
"6.	c #0D131E",
"7.	c #131A23",
"8.	c #010105",
"9.	c #080E17",
"0.	c #211F01",
"a.	c #3E3C06",
"b.	c #424B58",
"c.	c #1C2532",
"d.	c #11161D",
"e.	c #12161B",
"f.	c #010206",
"g.	c #010209",
"h.	c #0E0F12",
"i.	c #272502",
"j.	c #47450A",
"k.	c #0F0E0B",
"l.	c #030409",
"m.	c #10141A",
"n.	c #70787F",
"o.	c #06090D",
"p.	c #02040D",
"q.	c #161613",
"r.	c #0D152A",
"s.	c #190C01",
"t.	c #101114",
"u.	c #2A1301",
"v.	c #5B3E0A",
"w.	c #15171A",
"x.	c #030100",
"y.	c #170801",
"z.	c #4D3105",
"A.	c #030202",
"B.	c #040506",
"C.	c #05070E",
"D.	c #040716",
"E.	c #0F1113",
"F.	c #0C0D0F",
"G.	c #06080F",
"H.	c #151302",
"I.	c #06080D",
"J.	c #040709",
"K.	c #0A0D11",
"L.	c #010103",
"M.	c #060709",
"N.	c #060A18",
"O.	c #091023",
"P.	c #0D131F",
"Q.	c #121316",
"R.	c #060A17",
"S.	c #040815",
"T.	c #030200",
"U.	c #0E1318",
"V.	c #030612",
"W.	c #1B2127",
"X.	c #4C545A",
"Y.	c #24335A",
"Z.	c #121E41",
"`.	c #07090C",
" +	c #0B0D10",
".+	c #020305",
"++	c #0C1115",
"@+	c #11161A",
"#+	c #0F1318",
"$+	c #010205",
"%+	c #1E2123",
"&+	c #060A19",
"*+	c #0D0C01",
"=+	c #020410",
"-+	c #0D1115",
";+	c #171606",
">+	c #07090E",
",+	c #1C1C11",
"'+	c #7D7B40",
")+	c #0A0802",
"!+	c #050606",
"~+	c #0C1015",
"{+	c #636C74",
"]+	c #0E0D03",
"^+	c #020405",
"/+	c #0D1014",
"(+	c #070A0F",
"_+	c #010104",
":+	c #16181B",
"<+	c #1A1D20",
"[+	c #2B2F31",
"}+	c #070A12",
"|+	c #02040F",
"1+	c #090D12",
"2+	c #151A21",
"3+	c #374C6A",
"4+	c #101932",
"5+	c #01020A",
"6+	c #0E1217",
"7+	c #223157",
"8+	c #202E53",
"9+	c #08090B",
"0+	c #010202",
"a+	c #4B4F53",
"b+	c #13120E",
"c+	c #040612",
"d+	c #030302",
"e+	c #0C0F11",
"f+	c #0D1016",
"g+	c #020207",
"h+	c #0D0F11",
"i+	c #16150E",
"j+	c #030201",
"k+	c #495D78",
"l+	c #080E20",
"m+	c #040302",
"n+	c #1C2128",
"o+	c #172139",
"p+	c #030512",
"q+	c #090F21",
"r+	c #040818",
"s+	c #151411",
"t+	c #100F07",
"u+	c #0F131D",
"v+	c #030710",
"w+	c #0E1216",
"x+	c #0F0F06",
"y+	c #04060B",
"z+	c #040405",
"A+	c #060A11",
"B+	c #162035",
"C+	c #01030E",
"D+	c #060B1B",
"E+	c #050504",
"F+	c #0E1014",
"G+	c #1F2C52",
"H+	c #0C1016",
"I+	c #060B18",
"J+	c #020416",
"K+	c #293B6A",
"L+	c #585754",
"M+	c #090C10",
"N+	c #181C20",
"O+	c #757B7F",
"P+	c #06080B",
"          .     + @ #               $ % &         * = - ;   * > *     , *           '                               )           ",
"  !         * ~     .                 {             *                   ] *                                               ^     ",
"                * / ( *                             _                                                           - *             ",
"                  : < [               } |                                               *                 1     2 3             ",
"        4     5 6   .   7             8               9 0             a b               c                                       ",
"              * .                                       ,               d                         e           *                 ",
"          -                                             f 8       g 9 h i j                                   k                 ",
"  l             *             m               a         n *                                                       *     * o     ",
"                                                                      m p         *     q       ! r               s             ",
"                                q                                       ,       * t     , u                 .     v             ",
"                        )                                   -               *             j                                     ",
"w *                                                 x                                       |     y             9               ",
"      *                   -       ,     z         A B j                                   q C       ,         9 D               ",
"                          E -                       j                 F                                             G           ",
"                                        @                                     *                                 H               ",
"  I J   9       * K                   * L -                       M                                           N O P             ",
"    |           &               Q       R ,   |               * S T U                             8             V               ",
"                          *   * W *                               X           Y 9               2 Z                     `       ",
"                           .*                         * ..              +.  P @.#.9           |                     $.+   -     ",
"                                                        * &             @     %.                                    m   &.      ",
"        * *                                                                                 .                   *.              ",
"        =.-.            *                                               ;.                                                >.    ",
"          *             ,.    '.-                           !                                                               ,   ",
"-                       ).    !.~.          | &                             k                       b +             @ {.    ].  ",
"              ^./.                        | (._.          *                   :.      <.            ,   [.      }.|.  *         ",
"              .                   1.2.      3.4.                5.    &             m     2.                                    ",
"                          6.|                           *                           7.8.  9.8.                                  ",
"      0.a.                b.c.d.                        e.            f.g.          *                     h.                    ",
"      i.j.9       *     k.&   l.                      m.n.o.                                            1     m                 ",
"            p.*         q.                          * r.4.      K s.        t.          a           K u.v.w.*                   ",
"                        x.                                      * K a       m                         y.z.A.                    ",
"                  B.a 2 *         C.                                      m t.                          K                       ",
"      D.-         E.F.*           G.                                                                        H.  I.*             ",
"                                              m                     J.K.                        *               *         L.    ",
"                                                  M.                                            N.              O.              ",
"                                                                *                                       P.                      ",
"                                        2                                                               *   Q.                  ",
"                          R.      *     S.            T.| U.                                                B.        @ -       ",
"    -             ,     - V.                            W.X.*                                                       * Y.Z.*     ",
"          * `.     +                                      m                                             |         *   '.-       ",
"        5..+*                                                         *     K                           ++*                     ",
"@+    #+$+%+                                  *                     . &+    *+                                                  ",
"                =+*                                   /.                                                              -+  ;+    ",
"                                  >+                                                        &                           ,+'+)+  ",
"        m             !+        ~+{+d                                                           ,   8                     ]+    ",
"      ^+/+                      . (+                                                        *       #                           ",
"                                                                        _+                  :+m             <+                  ",
"                                                                                                            [+                  ",
"                                      .     '         q                                                                         ",
"                  - q 9 *                                                                   K.  |     8                         ",
"                        }+                                |+* 1+m                 -                                             ",
"              * 2+                  a                   m.3+4+$+          8.5+                                    L.6+          ",
"                |                                 *     _ !       |     - 7+8+*     _+                              e           ",
"m                                                 !               9+    0+a+7                   b+                  c+          ",
"                                                                          <+                    d+    , e+      f+  *           ",
"  L.    q           _+                        * -.    8   g+                                                        * 2         ",
"      * h+                  f.  i+j+          * V.      2.k+l+                            |                           0+m+      ",
"    8         n+_+      * o+                    p+        q+r+                            )     j           |         j s+      ",
"                                  -                       *                 9                   t+                              ",
"                            u+8   v+L.                    I         w+      x+9                                                 ",
"                                    y+*                         z+9 m                                                           ",
"          K     g.*   *       _                                                                                           ,     ",
"    A+L.  -     B+C+                            *   @             D+_+E+                                      =.    F+          ",
"m       * G+@       H+                        * I+J+K+@           . j L+E+                                    M+* N+O+P+        "};
