/* XPM */
static char * 8_xpm[] = {
"64 64 507 2",
"  	c #000000",
". 	c #010101",
"+ 	c #080206",
"@ 	c #03050B",
"# 	c #000001",
"$ 	c #040304",
"% 	c #010102",
"& 	c #030405",
"* 	c #030203",
"= 	c #000101",
"- 	c #020101",
"; 	c #0A0508",
"> 	c #13060E",
", 	c #070609",
"' 	c #050506",
") 	c #050405",
"! 	c #020203",
"~ 	c #010001",
"{ 	c #020202",
"] 	c #464E5F",
"^ 	c #010203",
"/ 	c #4C494F",
"( 	c #010000",
"_ 	c #050B15",
": 	c #220A19",
"< 	c #36212E",
"[ 	c #070306",
"} 	c #060507",
"| 	c #050914",
"1 	c #181618",
"2 	c #59575D",
"3 	c #020306",
"4 	c #071120",
"5 	c #0B0204",
"6 	c #0B0C11",
"7 	c #090A0E",
"8 	c #040508",
"9 	c #040404",
"0 	c #030304",
"a 	c #040203",
"b 	c #56505E",
"c 	c #02080F",
"d 	c #12151B",
"e 	c #0C060A",
"f 	c #020305",
"g 	c #040507",
"h 	c #0B0709",
"i 	c #151419",
"j 	c #040D14",
"k 	c #19202E",
"l 	c #040103",
"m 	c #0A070A",
"n 	c #030102",
"o 	c #06070A",
"p 	c #242A37",
"q 	c #060204",
"r 	c #0C0408",
"s 	c #1D0E18",
"t 	c #51535C",
"u 	c #464C58",
"v 	c #030303",
"w 	c #17243B",
"x 	c #10060D",
"y 	c #040406",
"z 	c #4D525F",
"A 	c #020102",
"B 	c #0F080C",
"C 	c #2A0F21",
"D 	c #0B0D14",
"E 	c #040405",
"F 	c #070406",
"G 	c #080708",
"H 	c #483A48",
"I 	c #02050B",
"J 	c #313949",
"K 	c #070507",
"L 	c #020304",
"M 	c #090509",
"N 	c #0C070A",
"O 	c #020307",
"P 	c #0C080C",
"Q 	c #12151A",
"R 	c #262C38",
"S 	c #44454C",
"T 	c #2F3644",
"U 	c #0B0609",
"V 	c #1C0A16",
"W 	c #070509",
"X 	c #050406",
"Y 	c #050203",
"Z 	c #060405",
"` 	c #010100",
" .	c #1D2534",
"..	c #313745",
"+.	c #231D25",
"@.	c #060506",
"#.	c #070305",
"$.	c #020205",
"%.	c #1F293A",
"&.	c #140810",
"*.	c #4B233B",
"=.	c #151114",
"-.	c #1B1318",
";.	c #182233",
">.	c #170B13",
",.	c #010202",
"'.	c #3D2334",
").	c #0A0206",
"!.	c #020407",
"~.	c #050305",
"{.	c #0A0709",
"].	c #030202",
"^.	c #080508",
"/.	c #050204",
"(.	c #010204",
"_.	c #03050A",
":.	c #0F0F11",
"<.	c #080608",
"[.	c #0A0609",
"}.	c #030406",
"|.	c #1F1F29",
"1.	c #010305",
"2.	c #353F4F",
"3.	c #0D1B2F",
"4.	c #5A3E4F",
"5.	c #040811",
"6.	c #000102",
"7.	c #0D0D12",
"8.	c #252930",
"9.	c #2B2C31",
"0.	c #150811",
"a.	c #14060F",
"b.	c #44172A",
"c.	c #0B0409",
"d.	c #000100",
"e.	c #050609",
"f.	c #2A0C1A",
"g.	c #684354",
"h.	c #15050F",
"i.	c #1B0F17",
"j.	c #372E34",
"k.	c #3C3C3F",
"l.	c #040101",
"m.	c #404249",
"n.	c #301827",
"o.	c #0E030A",
"p.	c #091726",
"q.	c #271A23",
"r.	c #0B0308",
"s.	c #16040F",
"t.	c #020204",
"u.	c #45293A",
"v.	c #34242E",
"w.	c #060C15",
"x.	c #09090B",
"y.	c #040306",
"z.	c #09080B",
"A.	c #230816",
"B.	c #070204",
"C.	c #414F65",
"D.	c #060305",
"E.	c #070103",
"F.	c #1B050E",
"G.	c #080204",
"H.	c #050103",
"I.	c #010103",
"J.	c #111419",
"K.	c #0E080C",
"L.	c #070203",
"M.	c #030305",
"N.	c #070508",
"O.	c #12040C",
"P.	c #433E45",
"Q.	c #0F0207",
"R.	c #280A1A",
"S.	c #060304",
"T.	c #190D17",
"U.	c #0F080E",
"V.	c #4E2E3F",
"W.	c #5A3C4A",
"X.	c #190411",
"Y.	c #0F050B",
"Z.	c #0D0207",
"`.	c #0A090C",
" +	c #10080E",
".+	c #190C14",
"++	c #010205",
"@+	c #0A0A0A",
"#+	c #170C13",
"$+	c #67505E",
"%+	c #281B24",
"&+	c #03060F",
"*+	c #0F0308",
"=+	c #06060A",
"-+	c #0B0508",
";+	c #04060A",
">+	c #161517",
",+	c #161A25",
"'+	c #050304",
")+	c #060606",
"!+	c #201D23",
"~+	c #0B0F16",
"{+	c #331C2A",
"]+	c #12060E",
"^+	c #253247",
"/+	c #141D2D",
"(+	c #080509",
"_+	c #120D12",
":+	c #130B11",
"<+	c #030306",
"[+	c #1B1B22",
"}+	c #141416",
"|+	c #080507",
"1+	c #584F56",
"2+	c #15151B",
"3+	c #110A11",
"4+	c #0A0E16",
"5+	c #12050D",
"6+	c #010408",
"7+	c #3B373B",
"8+	c #191719",
"9+	c #13151A",
"0+	c #070608",
"a+	c #4A2F3F",
"b+	c #11060D",
"c+	c #4B4852",
"d+	c #0C060B",
"e+	c #21131D",
"f+	c #0E0A0F",
"g+	c #03060C",
"h+	c #030407",
"i+	c #16181E",
"j+	c #080205",
"k+	c #180A11",
"l+	c #0E1E34",
"m+	c #454246",
"n+	c #4C3845",
"o+	c #0B0509",
"p+	c #240A18",
"q+	c #32161F",
"r+	c #12141A",
"s+	c #171517",
"t+	c #080808",
"u+	c #15171E",
"v+	c #15070E",
"w+	c #16151E",
"x+	c #2F0F20",
"y+	c #1E0814",
"z+	c #12030A",
"A+	c #452637",
"B+	c #140A11",
"C+	c #645867",
"D+	c #0D0D0D",
"E+	c #0F050C",
"F+	c #240C1B",
"G+	c #1D0C17",
"H+	c #050C1A",
"I+	c #0E0E12",
"J+	c #070407",
"K+	c #15050C",
"L+	c #1D161B",
"M+	c #0D1D31",
"N+	c #0E1726",
"O+	c #1A0612",
"P+	c #494148",
"Q+	c #0E0B11",
"R+	c #161B23",
"S+	c #1D1D22",
"T+	c #04060C",
"U+	c #200917",
"V+	c #03060E",
"W+	c #0D0409",
"X+	c #1B283B",
"Y+	c #13070F",
"Z+	c #050104",
"`+	c #030814",
" @	c #0F0D0F",
".@	c #040305",
"+@	c #1E2026",
"@@	c #070A12",
"#@	c #24181D",
"$@	c #080407",
"%@	c #1F111A",
"&@	c #1E181E",
"*@	c #413C48",
"=@	c #08101C",
"-@	c #080306",
";@	c #273143",
">@	c #030509",
",@	c #070104",
"'@	c #20151C",
")@	c #0C111A",
"!@	c #060102",
"~@	c #050505",
"{@	c #0B090E",
"]@	c #110D10",
"^@	c #0E050B",
"/@	c #100C10",
"(@	c #100E11",
"_@	c #161516",
":@	c #070708",
"<@	c #0A0B0F",
"[@	c #0A0409",
"}@	c #04070D",
"|@	c #22344B",
"1@	c #151013",
"2@	c #090B10",
"3@	c #0C0206",
"4@	c #343C4B",
"5@	c #050D17",
"6@	c #050508",
"7@	c #05080F",
"8@	c #05060A",
"9@	c #06080C",
"0@	c #595D6B",
"a@	c #1B1720",
"b@	c #413E41",
"c@	c #171727",
"d@	c #060103",
"e@	c #191217",
"f@	c #422537",
"g@	c #0F050D",
"h@	c #10050C",
"i@	c #160F14",
"j@	c #442C39",
"k@	c #4B474E",
"l@	c #382933",
"m@	c #36202E",
"n@	c #171318",
"o@	c #05070F",
"p@	c #111D2D",
"q@	c #6A616A",
"r@	c #070707",
"s@	c #3F2F3A",
"t@	c #0F070C",
"u@	c #25141E",
"v@	c #353138",
"w@	c #5C3B50",
"x@	c #090407",
"y@	c #171B23",
"z@	c #0E131C",
"A@	c #050A13",
"B@	c #0C0308",
"C@	c #161519",
"D@	c #040102",
"E@	c #020408",
"F@	c #4C2631",
"G@	c #552635",
"H@	c #100E10",
"I@	c #221920",
"J@	c #1C1118",
"K@	c #1C0E17",
"L@	c #121C2B",
"M@	c #100F16",
"N@	c #4B4248",
"O@	c #12090E",
"P@	c #0E0409",
"Q@	c #050507",
"R@	c #06070E",
"S@	c #080B11",
"T@	c #040204",
"U@	c #06080F",
"V@	c #2C2831",
"W@	c #14040B",
"X@	c #130810",
"Y@	c #15040C",
"Z@	c #090307",
"`@	c #564F54",
" #	c #101018",
".#	c #18141A",
"+#	c #341628",
"@#	c #4E4F56",
"##	c #030508",
"$#	c #080308",
"%#	c #17191E",
"&#	c #190610",
"*#	c #160710",
"=#	c #110910",
"-#	c #241E26",
";#	c #14161C",
">#	c #141117",
",#	c #1B0511",
"'#	c #04070E",
")#	c #070205",
"!#	c #291522",
"~#	c #110B11",
"{#	c #050A12",
"]#	c #545967",
"^#	c #524958",
"/#	c #060306",
"(#	c #0B0A0F",
"_#	c #14040E",
":#	c #1E1A21",
"<#	c #060609",
"[#	c #25091B",
"}#	c #240A1B",
"|#	c #56404E",
"1#	c #381328",
"2#	c #14050F",
"3#	c #020303",
"4#	c #474346",
"5#	c #15080B",
"6#	c #080307",
"7#	c #22121C",
"8#	c #0B0C14",
"9#	c #04070B",
"0#	c #40152B",
"a#	c #090306",
"b#	c #0F0A0E",
"c#	c #21191F",
"d#	c #2B1F27",
"e#	c #251C29",
"f#	c #161C27",
"g#	c #0D060A",
"h#	c #1D0D17",
"i#	c #0F060C",
"j#	c #1A1C22",
"k#	c #090608",
"l#	c #0E0B0F",
"m#	c #423D42",
"n#	c #21334D",
"o#	c #0F1F34",
"p#	c #655765",
"q#	c #1B0814",
"r#	c #111722",
"s#	c #373B42",
"t#	c #06090F",
"u#	c #050608",
"v#	c #050911",
"w#	c #040913",
"x#	c #250915",
"y#	c #37333A",
"z#	c #0A0F17",
"A#	c #202228",
"B#	c #030408",
"C#	c #503A47",
"D#	c #11050D",
"E#	c #0C0C0C",
"F#	c #0B1423",
"G#	c #392938",
"H#	c #251720",
"I#	c #060205",
"J#	c #0E0E11",
"K#	c #131C29",
"L#	c #020406",
"M#	c #121112",
"N#	c #0E1D32",
"O#	c #372D34",
"P#	c #08060A",
"Q#	c #3B132B",
"R#	c #191E27",
"S#	c #292729",
"T#	c #02040B",
"U#	c #30343F",
"V#	c #21121C",
"W#	c #3C475C",
"X#	c #11090F",
"Y#	c #414855",
"Z#	c #040509",
"`#	c #251E23",
" $	c #05070C",
".$	c #1E2F42",
"+$	c #585359",
"@$	c #101621",
"#$	c #090E16",
"$$	c #1E1F25",
"%$	c #131013",
"&$	c #353B47",
"*$	c #181C23",
"=$	c #0A060B",
"-$	c #636776",
";$	c #0F1115",
">$	c #0F030A",
",$	c #413B42",
"'$	c #110309",
")$	c #383A41",
"!$	c #100F14",
"~$	c #151515",
"{$	c #0F131B",
"]$	c #03070F",
"^$	c #291C28",
"/$	c #5D4A56",
"($	c #20141C",
"_$	c #2F232B",
":$	c #0E1623",
"<$	c #3C3D49",
"[$	c #13040D",
"}$	c #171317",
"|$	c #05080D",
"1$	c #16050F",
"2$	c #090609",
"3$	c #160912",
"4$	c #241620",
"5$	c #1C131C",
"6$	c #09070B",
"7$	c #0E0D12",
"8$	c #06070B",
"9$	c #121B2A",
"0$	c #06101D",
"a$	c #6A5964",
"b$	c #1C181C",
"c$	c #37192C",
"d$	c #4D3E48",
"e$	c #0A1019",
"f$	c #37333C",
"g$	c #080910",
"h$	c #060406",
"        . +           @                   # $       . . % & * = - ; > , ' . & ) !   % . .   %   ~     {       % ] . ~ *   {     ",
"          ^ / (                         . % _   { .     !   ~     . . ~ . . . : < [ } . - % .   .   # =         |   1 2 )       ",
"            3       4   .               . - 5   . .       . 6 #     7     8 9 . ~ }   0 . . .   a                     .         ",
"      - b ^         c                 # d   .   . #       * .   # % .   .   . e . f g & . . = f     . h i   ~         .   ~     ",
". % j % k .                       .           . . l ~       . . m n     * o   p ! . q . % q - r     s t u ^     v               ",
"      w .       =                   . .     .   . x y z   .   A * ! . .       ^ # B C ~ D . { E F . G                 .         ",
"              % =   H I                             f J     .               .   K L M N O . P   .         .                     ",
"      Q R     S T . l   . U                   .   . V     L W =       X Y .   # % Z   . *   . `   . f       .                   ",
"       ...    .           .                   . . .     # +.      @.f           #..     $.  # .   % . .     ~ ~   %.=     - % . ",
"#   % &.*..               =   .               =.# ` .     .         . . -.% % % = . .     a   ( ~ . *             ;..     >.  . ",
"  ,.. '.).  !.                . # .     .   = ~         . ~.- {.. #   . ( A     . ].^.a   ~ . /.  .                         # . ",
". .       A %     ( A . a   .   * (   (.. y n     ~ .   _.:.  <.  [.l - }.  &   #   %   .   # ~ A .     . |.  1.  ~   . .     . ",
"  . { . . . .     .   . )   . .       2.3.-       4.5..     #   6..   7.8.  #.    n 9.0.  a.n b.c./.-     . d.    .   . e.,..   ",
"f.g.h.l (         . . . .   $ .     { A . = i.  . l   %       . ^   a j.k.l..   .   m.n.  o.~         p.%               ! % # . ",
"  - q.r..   ~ s.  .       t.u.v..   w.. x.              ! y.  .   z.  .   A.B.a C.D.A   .                       .       *   #   ",
". % . E.F.. .     A . * . A G.H.  % I.. . ~ a   J.      . K.#   L..     M.  - ~ N.                    .               O.P.. ~ A ",
"~ . . Q.R.. .       n .   . S.. T.. U.V.W.  . .     (     # ^ . =   .   =               .     ~               =         . A ( . ",
".     . ~ X.H.    ~ .     { # . Y.. ! q Z.. %   `.{  +    .+    ++# M.@+    ~.  . #+                            ++          ~ = ",
". A .     $+%+&+++*+=+% { !   % % % . % g   -+. ;+      . . >+% ,+  ~       '+. )+  .                   .           !+~+  {+]+A ",
"- .   .   a = ^+/+. (+_+:+<+. . % . . [+}+|+1+{   # { .   n 2+  . 3+. [   = 4+5+. .           =         3         = 6+I.  7+8+. ",
"        .   %     9+0+A '+a+b+. . . . c+d+* { {   e+f+  . ^ g+h+i+    {   .   j+k+    *   (   l+I         .               ~     ",
"          ! m+.   %   . A n+o+~ = .   . % p+q+].r+s+  t+.   h+u+      0 = &.. n v+w+  H.  x+y+(.      =     %       z+A+        ",
"            %         ! y . B+C+. .   D+! E+F+.     (       # G+! H+        n   I+J+K+      L+~     f M+N+        v O+P+  .   . ",
".             . Q+  # R+S+{ * T+. ! ~   . (   # =     ~ *     l U+V+n W+          X+.                         ~     Y+Z+      . ",
"~       `+#         ! v  @. ].  ;+.@      . a +@  . @@! { *   #@$@F       A %@&@. *@*   # ~+        .         =@! . * .       ^ ",
"-@      ;@>@      @+- !   . . . # . . ~     %   . ~ $ . # % .     ,@'@)@    v       -   ++(.. !@.   # ~@                  /.. {@",
"      (           ~   ]@0 {   (   ^@    0 .   % . ~ . . * /@.     (@. _@  A               .   .                     . ~   . . # ",
".     `                     a A   :@<@[@. ( .   . .@. }@|@A . 1@  . ! ~ . .       { l     .                   '+  . . E         ",
"                              2@        *     3@4@5@.   ,.. 6@'+    . 7@8@  A . % 9@0@.         -         .   a@.   {.b@.   (   ",
"    .     . . . .     (.      f     ~ . -   ) c@,.].  #     d@e@. f@g@      h@  I.i@! ~   %           .       .     .   . j@k@. ",
"j+~ .   {   n l@m@. .     .       . =   - n@].o@.     =   p@q@$@r@s@t@. . . [..   * a .   . ~@  ~             # .       . u@v@w@",
".   . . % . x@A   {       y@  ! ,.  -   n z@a %   = ( ( f % A@~ A ! !   A { !   . . .   { .@  B@        .   . . .   . ( . . ~ { ",
"#     .   A       . .     v.% t.    C@J+D@    (   E@F@G@t.- % . H@. I@J@  E 0   ,.  *   #.K@  .           . -   . ( #     L@M@  ",
"  .   .   ~   (           N@/.~   .       . .     O@A - - ! P@Q@. * = R@. A A a A %     ~ ~ . ~ =           ~     .   ~ ~ S@  . ",
"A       .       .       $ =   { 0 . - .   . T@%   . # %   A A   & . U@V@. . ~ * . *   . .   . A             -@  . W@X@Y@Z@`@  . ",
".                 .         . ].    0   .   %    #. !         0 . q .#{ - % * !   .           (.                  +#@#  {     $ ",
"{   A     .     >@1.  . .   .       ~ ##. .   .   %   A * % ~ . . . . A . . l . A   A                               . .   .   % ",
"  . .           % =       .     #     $ $#~   . . %#  . 0 .@E A . A .   .@.     # . { .       %               (   % . A ~   # . ",
")+  { .   ~     = . % #     = f A   ~   ,.v   0 A       { ! 8 A . a ~ % l   = = ~ = ].      - &#          A *#. . .   . ,.    . ",
"      ~ .   - ! {     %     . =#  ~   . (   - A {   . ( .   -#@.;#>#  . ! % .   . ~ ~       ~ ,#  .   % '#. l (   0 % A . . - # ",
"=     .     )#  .     =     . !#  $@~#{#.   #+.   #   . . . j+  . ~   A   . }@.       !   .         A ]#^#/#0       { (#    % { ",
"%   d.% .         .         . ~ _#  # . . :#    <#  . = .   [#{ ,.  . . ~   # % . ~ ~     a       %   .   { ~ .   3 j+% {   . { ",
"    - A   ~           ( . .   }#|#  .   1#- ~ y . . . . . . .       . ~ . .   . #       )+              . {   . .   2#3#      A ",
"  {   4# @      ~ . .     . -         . 5#    . . .   % . @.      . % - . 6#* .     .               . .     .   A       =   - . ",
"$ = n 7#0+# ,.      -   A # ,.          3#  . 8#8 9#% = . .       ! . 0#. % ! ( .         n a#    .   #   # .   . # . . b#. . $ ",
"~.    .   . .     . . ~   ~     {   . .   ~ . c#d#  ~     ~   .       ; e#f#. ( ~         g#h#  .   ~     %     % E i#  . . - j#",
">     .     .   k## ~ . .   . . 0 . . . . .   . D@. .   . n . 7@L@l#m#  ^ ;+                    =     =   !.n#  .     . = = { ,.",
"A .   . . . #   L   .   ~   o#p#H.  q#{     .   # . . ~ f A . r#s#,.t#    ~ .           -   ( . u#    .   v#w#.     . A   . . * ",
"        ].. .     = = . ~ . O x#  .   . %     -     0 ! r@A A . .         y#x@        ( # .   8 z#. .   ~ . . A A#B#! A     C#D#",
"          .   .     % E#.     . . . # . =     =     # ^ . .   .           .   F#      . . . .   . .   ! G#  A . k#. ,.. ~   H#I#",
"            % # .   ~ .   8@J#    . .   . .   * . .   K#L#                    .   n   . % . ~ . ~ M##   .   d@A $ . A # r@. !   ",
"            N#  ~ . . # . { ! A   ( % # . .   ! %     O#P#. ~                   . Q#~ . ~ { . .     o   . ~ . ].. %     ~   {   ",
"      . .     . .   % R#  . . . S#  #   .   . A * ,.  . . .                 .     =   . . . . . ~ . z.  #   .   . .     .       ",
"              }.f   T#U#~   ! . V#= %   A   .   - A . A .     . . W#I.X#(           . { %   ! ! . # ~ . O = . ~     .     .   . ",
"Y#            Z#L#      ].. . }.`#. #     .   .   . .        $E   .$= +$@$.       .   . . . .   . . {   % #$^ . . ~     .   . $$",
"}.          ~             =   ! %$. .   ~     # .   = .   . ^ %   * &$*$f         . =       . . . =$-$. ~ ;$I.    ^ {         % ",
"                        .       =     .         . >$    ~       ( n ,$          .   .     .   #   . '$! )$!$    . #             ",
"      ~$.   {$        .       % ]$  ^$.   ~ =   ,./${     f 8@.       . - a#            # { ~ v . .     9@.     . .       . #   ",
"      {     =       .     . .     . ~ .   r         .     ($_$.       ~.      ~     #       . . =   . ~       :$v     . <$5+    ",
"[$          =   }$|$                    . 1$      A   .         A           . $     2$.       ! # # . 3$      ^         (.    4$",
"5$6$      .         .   .           ~     #       .       .   { 7$    9   % A   . (.. {       !     .                         5+",
"@ ^         .           .     ^   . .   ~     .   .                   (..   a 8$% 9$! A     Z .   .           .   (             ",
"      .       0$            .         0 a$-             -   ( . . =   A %   .     . . # { .   .             a b$            .   ",
"l       c$d$  = .       .         #     e$          f$g$  D.! .   E h$        L   . A . # K . .       .                       ( "};
