/* XPM */
static char *_4dbba7253304ad4a52607ef0be1f910Te3gO7afjBAAvknl[] = {
/* columns rows colors chars-per-pixel */
"64 64 229 2 ",
"   c #020101",
".  c #090400",
"X  c #0C0A03",
"o  c #09090B",
"O  c #120F06",
"+  c #14120C",
"@  c #141005",
"#  c #0A0C14",
"$  c #0A0D1A",
"%  c #040A17",
"&  c #0E111D",
"*  c #0D1117",
"=  c #12141E",
"-  c #1D1C1C",
";  c #171616",
":  c #201D18",
">  c #23221E",
",  c #091425",
"<  c #06162A",
"1  c #0B172B",
"2  c #0B192E",
"3  c #071424",
"4  c #131621",
"5  c #151923",
"6  c #1B1D25",
"7  c #171D2C",
"8  c #0A1B33",
"9  c #0A1E3B",
"0  c #071934",
"q  c #101E37",
"w  c #1E222A",
"e  c #0B203E",
"r  c #12223D",
"t  c #1C263C",
"y  c #1A2336",
"u  c #242423",
"i  c #242529",
"p  c #2C2C2B",
"a  c #292826",
"s  c #302F2E",
"d  c #32312F",
"f  c #2B2D34",
"g  c #232A3B",
"h  c #252932",
"j  c #2D323C",
"k  c #2F3034",
"l  c #333333",
"z  c #343538",
"x  c #3C3C3C",
"c  c #38383A",
"v  c #312F32",
"b  c #403F3D",
"n  c #42413E",
"m  c #0B2343",
"M  c #0C264A",
"N  c #0D284D",
"B  c #03264D",
"V  c #132544",
"C  c #1C2A44",
"Z  c #13294C",
"A  c #1A2D4D",
"S  c #142745",
"D  c #0D2C54",
"F  c #01265C",
"G  c #022A5D",
"H  c #0E2E5A",
"J  c #022554",
"K  c #122C54",
"L  c #112E5A",
"P  c #182F58",
"I  c #1A2E52",
"U  c #0E305D",
"Y  c #1C3156",
"T  c #11315E",
"R  c #1C335B",
"E  c #163055",
"W  c #222D44",
"Q  c #2D3443",
"!  c #2C354A",
"~  c #28354D",
"^  c #3C3D42",
"/  c #333A4C",
"(  c #393E4B",
")  c #333844",
"_  c #243454",
"`  c #2C3954",
"'  c #21355B",
"]  c #2B3B5C",
"[  c #273857",
"{  c #343D53",
"}  c #012C63",
"|  c #002E69",
" . c #023165",
".. c #0C3364",
"X. c #00316B",
"o. c #0D366A",
"O. c #0D386E",
"+. c #123463",
"@. c #1B3562",
"#. c #1A3866",
"$. c #12366A",
"%. c #13396D",
"&. c #1C3B6C",
"*. c #193769",
"=. c #013472",
"-. c #0D3A73",
";. c #0A3C78",
":. c #133C73",
">. c #1B3D72",
",. c #153E79",
"<. c #233A63",
"1. c #233D6B",
"2. c #273B61",
"3. c #253F70",
"4. c #3B4254",
"5. c #39445B",
"6. c #3E424E",
"7. c #144077",
"8. c #1D4071",
"9. c #15417D",
"0. c #1A427C",
"q. c #2C416A",
"w. c #20406F",
"e. c #344363",
"r. c #394768",
"t. c #244172",
"y. c #274477",
"u. c #354B76",
"i. c #3A507F",
"p. c #444444",
"a. c #44464B",
"s. c #4B4B4B",
"d. c #494946",
"f. c #414655",
"g. c #4D4E52",
"h. c #454A5B",
"j. c #484C58",
"k. c #4D515B",
"l. c #4F5052",
"z. c #535354",
"x. c #585754",
"c. c #595957",
"v. c #5D5D5C",
"b. c #54565B",
"n. c #515050",
"m. c #605F5D",
"M. c #61615F",
"N. c #414A64",
"B. c #4C5264",
"V. c #4C546B",
"C. c #46526E",
"Z. c #5A5C63",
"A. c #52596C",
"S. c #575A66",
"D. c #4A5776",
"F. c #525C76",
"G. c #525E7C",
"H. c #585F71",
"J. c #615F60",
"K. c #5D616C",
"L. c #5A6174",
"P. c #51607E",
"I. c #59627C",
"U. c #626262",
"Y. c #6C6B6A",
"T. c #65676A",
"R. c #656974",
"E. c #696D7A",
"W. c #676A75",
"Q. c #737374",
"!. c #75767B",
"~. c #7D7D7D",
"^. c #787876",
"/. c #6D707F",
"(. c #164583",
"). c #194585",
"_. c #164887",
"`. c #174789",
"'. c #17498A",
"]. c #184A8C",
"[. c #1B4889",
"{. c #174D90",
"}. c #194D92",
"|. c #1B5196",
" X c #1A529B",
".X c #1B549A",
"XX c #284A82",
"oX c #375487",
"OX c #27579A",
"+X c #345D9B",
"@X c #3D6098",
"#X c #1F58A3",
"$X c #1C56A0",
"%X c #215AA3",
"&X c #415785",
"*X c #525F81",
"=X c #546282",
"-X c #596585",
";X c #596789",
":X c #59678E",
">X c #59698D",
",X c #446295",
"<X c #596991",
"1X c #5B709D",
"2X c #686F83",
"3X c #6E7488",
"4X c #717786",
"5X c #777A82",
"6X c #7B7C83",
"7X c #71778A",
"8X c #72788C",
"9X c #7C7F88",
"0X c #727A91",
"qX c #7E828E",
"wX c #838383",
"eX c #8B8B8C",
"rX c #868788",
"tX c #8A8D95",
"yX c #8A8D99",
"uX c #868A95",
"iX c #8F9095",
"pX c #939395",
"aX c #959699",
"sX c #999A9E",
"dX c #90908E",
"fX c #9D9EA3",
"gX c #979AA1",
"hX c #9FA0A5",
"jX c #A1A2A5",
/* pixels */
"Z.S.H.I.;X;X;X;X:X>X>X-XI.-X-X-X>XI.-X;X>X;X-X-X-X;X;XI.L.L.L.I.1X>X-X-X<X;X;X;X;X>X<X;X;X;X>X>X>X-X;X<X<X;X-X-X-X-X-XI.L.L.;XI.",
"0 m L :.(.(.(.9.(.'.'.:.:.,.9.9.`.%.:.9.'.9.:.:.,.9.(.%.+.+.+.:.%X[.,.9.'.(.(.9.(.'.}.(.(.9.].'.].9.(.`.].9.:.:.7.9.9.%.+.+.(.%.",
"8 g _ :.(.].'.(.(.{.}.,.:.,.9.'.].:.:.9.{._.:.:.,.'._.%.+.B.] 8.+XD.>.9.].].(.(.).{. X'.].(.].{.{.(.(.'. X(.:.:.,.(.(.%.@.V.XX:.",
"8 c f.%.(.].].'.'.{.}.:.:.:.9.'.].$.:.(.].(.%.%.,.(.'.$.P !.k.t.,X5Xq.(.{.].'.'.(.{. X'.].(.{.}.}.'.'.]. X(.$.:.9.(.9.$.] 5X&X>.",
"8 t _ :.(.].'.'.(.{.{.:.:.,.9.(.].%.,.9.].(.%.:.9.(.(.$.+.e.2.&.OXi.0.(.{.].`.'.).]. X'.].(.{.{.{.'.`.].|.(.%.:.9.(.9.+.+.r.y.%.",
"0 e H %.9.'.(.(.(.{.'.:.:.:.9.(.(.%.:.9.(.9.:.:.,.9.(.$.$.$.$.:.%X].9.9.].'.(.(.(.`.}.(.`.(.].'.].(.(.'.].9.:.:.,.9.9.+.$.$.(.%.",
"0 e L $.9.(.9.9.(.{.(.:.:.:.:.,.(.:.:.,.9.,.:.:.:.:.9.+.+.$.+.:.#X).,.:.(.(.9.9.(.).'.(.9.(.'.(.(.9.(.[.'.9.:.:.:.,.,.+.$.$.9.%.",
"2 8 A +.:.9.9.9.9.'.(.:.%.:.:.:.9.%.%.:.9.:.%.%.%.%.:.+.+.] R %.OXy.%.%.,.,.,.9.(.(.(.,.9.(.(.9.9.,.(.(.'.9.$.%.:.:.:.+.+.2.0.$.",
"2 f ) H %.:.:.9.9.9.9.%.$.%.%.%.,.$.$.%.:.:.o.$.$.%.%.+.P T.4.*.oXR.<.$.:.:.:.9.9.,.9.:.,.9.9.9.,.:.9.9.(.:.$.$.%.%.%.+.' T.u.+.",
"2 7 C L $.%.%.:.:.:.,.$.+.$.$.$.:.$.$.$.%.%.$.$.$.$.$.L L 4.~ +.XXe.+.T %.%.$.:.:.:.,.:.%.:.,.:.:.%.:.:.9.%.+.$.$.$.$.H E 5.1.T ",
"< 2 m L +.#.&.1.1.1.1.<.<.<.<.1.1.<.<.<.1.1.<.<.<.<.1.R I K K T 0.+.@.R 1.1.1.1.1.1.y.1.<.1.1.1.3.<.1.1.y.1.<.<.R R +.L K K +.H ",
"* 5 f ( j.H.5XiXsXsXsXsXsXsXsXgXsXsXgXsXsXsXsXsXsXsXsXeXQ.Z.k.( B.S.W.rXaXsXgXsXsXsXgXsXsXsXsXgXsXgXsXsXgXsXsXaXeXQ.Z.k.a.( Q y ",
"o a s.d d x c.wX~.v.U.U.Y.pXT.U.M.T.rX~.v.U.U.wXwXU.v.x.m.~.p.a c c.wXx.v.v.Q.rXQ.v.U.U.dXQ.U.U.U.^.eXU.U.J.U.wX^.p.c l v.Y.l ; ",
"o - z = = & i d.^ % $ $ i z.i $ $ 6 s.x % % % p.p.& $ $ f z.i * 6 z z.= $ % f d.z % $ $ z.z & $ & z z.$ $ % = a.p.$ 4 = x s.6 # ",
"3 0 S L $.$.$.#.*.%.%.+.T @.+.+.%.T @.+.$.$.T @.#.$.$.T K E D L 0.%.@.+.%.$.+.&.*.$.:.$.&.$.%.$.%.+.&.%.%.$.U @.#.+.$.L K P $.D ",
"0 m H %.(.(.(.9.(.'.'.:.:.,.9.9.(.:.:.9.(.9.:.:.:.9.9.%.+...+.&.OX'.,.9.'.(.(.9.(._.].(.(.9.'._.'.9.(.'.'.,.:.:.,.9.9.%.+...9.%.",
"0 r Y %.(.'.'.(.(.].{.9.:.7.9.'.].:.,.9.{._.:.:.,.(.(.%.+.e.R :.OXu.:.9.].].(.(.(.]. X'.'.(.].{.{.(.`.].|.(.:.:.,.(.(.%.+.e.).:.",
"8 ) f.%.(.].].'.(.{.}.:.:.:.9.'.].%.:.9.{.(.%.:.,.(.'.%.R !.k.w.,X5Xq.(.{.].'.'.(.{. X].{.(.{.}.}._.'.]. X(.%.:.9.(.(.$.] 5X&X:.",
"8 g ` :.(.].].'.`.{.{.:.:.,.9.(.'.$.,.9.].(.:.:.9.(.'.$.T A.5.&.+XG.t.(.}.].].'.(.{. X`.{.(.{.}.{.'.'.]. X(.$.:.9.(.9.+.@.A.XX%.",
"0 e H :.(.'.'.(.(.{.].:.:.:.9.(.(.%.:.9.'.9.:.:.,.(.(.$.+.....:.#X'.9.9.].'.(.'.(.'.|.'.'.(.].].{.(.'.'.{.(.:.:.,.9.9.+.$...9.%.",
"0 e H $.9.(.(.(.`.{.(.:.:.:.,.,.(.:.:.,.9.,.:.:.:.9.9.+.$.$.+.:.#X'.,.,.(.(.(.(.(.(.].(.(.(.].(.`.(.(.'.].9.:.:.:.7.7.+.$.$.9.%.",
"0 9 Z +.,.(.9.9.(.].).:.%.:.:.:.9.%.:.:.9.:.:.%.:.:.:...+.@.T %. X0.:.:.9.9.,.9.(.9.(.,.9.(.`.9.9.9.(.(.'.9.%.:.:.:.:.+.+.#.9.$.",
"2 h / T :.,.:.9.9.(.(.:.$.%.:.%.9.$.$.:.,.:.$.$.%.:.:...E K.4.*.oXL.<.$.:.:.:.9.9.9.9.:.7.(.(.9.7.,.9.9.(.,.$.$.%.%.:.+.R K.u.$.",
"1 h Q L $.:.:.:.:.,.,.%.+.$.$.$.:.$.$.%.:.%.$.$.$.$.%.U K k./ +.XXB.R +.%.%.%.:.:.:.9.:.:.:.9.:.:.:.,.:.(.:.$.$.$.$.$.H E B.q.T ",
"< 2 m D ..X. .| | X.X.} F F F } X.F F F | } F F F G } J J B B ..9.H G G | | } | | | =.| } | X.X.X.} | | =.} F F G G  .G D D $.H ",
"& 5 g / h.A./.qXuXyXyXyXyXtXtXyXyXtXyXyXyXyXyXtXtXyXtX9XR.k.h.{ C.B.L.6XuXyXyXyXyXyXyXyXyXyXyXyXyXyXyXyXyXyXtXuX6XR.B.h.4.! _ C ",
"o u p.z ^ g.T.eXeX~.~.~.wXsXwX~.~.wXpXeX~.~.~.pXpX~.~.Q.T.Q.s.v p.c.~.Y.~.~.wXpXrX~.6X~.sXrX~.~.~.rXsX~.6X~.wXpXwXv.d.p.c.U.l - ",
"o - p.- O X a x.d.      p U.a     - c.p.      n.z.X   . c U.p + : b T.+     l x.x     . M.x .   X b M..     + x.s.X + + d.v.u X ",
"$ 1 t M H L P ] ' L L K A ] P K L A ` _ L D N [ [ K K M C ` S V #.R ] K L L E ] R L T K ] R L L L Y ] L L K Z [ [ K K M W ~ K m ",
"2 9 H $.9.9.9.,.9.(.(.:.%.:.,.7.(.%.:.,.9.:.:.:.:.9.9.$.+.....%.|.(.:.:.(.9.9.7.9.(.'.9.9.,.(.(.(.,.9.(.`.:.%.:.:.,.7.$.T ..,.$.",
"8 e L %.(.'.'.(.(.].{.9.:.,.9.(.].:.,.9.].(.:.:.9.(.(.%.+.@.+.:.%XXX:.9.].'.(.(.(.]. X'.`.(.{.].{.(.(.].}.9.%.,.9.(.(.%.+.#.(.:.",
"8 j 4.%.(.].'.'.`.{.}.,.:.:.9.'.].%.:.(.{._.:.:.:.(._.%.T R.N.8.@X2Xt.9.{.].'.`.`.]. X'.].(.{.}.}.(.'.]. X(.%.:.9.(.(.$.' E.oX:.",
"8 j 4.:.(.].].'.'.{.{.:.%.,.9.'.'.$.,.9.].(.%.:.9.(.'.$.R W.h.8.,XE.t.(.{.].'.'.(.{. X'.{.).{.{.}.'.'.{. X(.%.:.9.(.(...' E.oX:.",
"0 9 D :.(.'.'.'.(.{.].:.:.:.9.(.`.%.,.9.'.9.:.:.,.(._.$.+.T T :..X).9.9.{.].(.`.(.]. X'.].(.{.].{.(.'.].}.(.%.:.9.9.9.+.$.+.9.%.",
"0 m H %.9.`.(.(.(.}.'.:.:.:.,.9.(.:.:.7.(.,.:.:.:.9.9.+.$.$.$.:.#X].9.9.'._.(.(.(.(.].(.(.(.].'.'.(.(.].].9.:.:.,.9.9.+.o.$.(.%.",
"0 9 D $.,.(.9.9.(.{.(.:.:.:.:.:.(.:.:.:.9.,.:.:.:.:.,.+.$...U %. X(.:.:.9.9.,.9.(.(.'.9.0.(.'.(.(.,.(.`.'.9.:.:.:.:.,.+.$...9.%.",
"2 g ~ T :.9.,.9.9.(.(.%.$.%.:.:.9.$.%.:.,.:.%.$.%.:.:.+.T V.] *.OXF.&.$.7.,.:.9.9.9.(.,.9.(.(.9.9.,.(.9.`.9.$.%.%.:.:.+.@.V.y.$.",
"2 h ) H %.:.:.,.,.9.9.%.$.%.%.%.,.$.$.%.:.%.$.$.$.%.%.T K Z.{ +.oXK.R +.:.:.:.,.,.,.9.:.:.,.9.:.,.:.9.,.9.:.$.$.$.$.$.T Y K.u.+.",
"< 2 V D ..o.X.X.X.=.=.| G } } } =.} G } X.X.} G } } | J B A Z ..9.R G G X.X.| X.X.X.=.X. .X.=.X.=.| X.X.=. .G } }  ...H D A +.H ",
", 1 C ` e.C.L.2X3X8X8X7X4X4X7X7X8X4X4X7X8X7X4X4X4X7X7XW.A.5.5.[ u.r.V.W.3X8X7X7X7X8X0X8X4X7X8X8X8X7X7X7X0X7X4X3XE.A.N.5.` _ ' A ",
"# 6 ^ ^ s.Z.!.pXsXpXpXpXaXjXpXaXpXpXfXsXpXpXpXsXsXpXpXrXQ.W.z.c j.Z.~.wXiXpXaXsXsXpXpXpXjXsXpXaXpXsXfXpXpXpXpXsXeXW.c.g.z.z.j w ",
". > d.- + O p v.s.  . . d T.p . . u M.d.. . . c.c.@ . X b Y.d + > p.Y.; .   x v.n   . X T.p.O . @ p.T.X . . ; v.x.O + + n.M.u X ",
"% 5 j y V e W f./ m V r W h.W r V t 4./ r r r 4.4.r r q Q j.t q A ! h.r V r ! 4.! m V r h.! V r V ! h.V V r r 4.( q r q ) 6.S 0 ",
"< 9 N $.:.:.:.:.,.7.,.%.$.o.%.%.,.$.o.:.:.%.$.o.%.:.:.$.H H H +.].,.%.%.,.:.:.:.:.:.9.:.-.:.7.:.7.:.:.,.9.%.$.$.%.%.:.+.U U :.U ",
"8 m H :.(.(.(.(.(.].].,.:.,.9.(.'.:.:.9.'.9.:.:.9.(.(.:.+.+.+.:.%X).,.9.'.'.(.(.(.'.}.'.(.(.].].{.(.`.].{.9.:.,.9.9.(.%.+.+.(.:.",
"8 g ` :.(.].'.'.(.].}.,.:.,.9.'.].:.:.9.{._.:.:.,.'.(.%.T A.5.8.+X=X>.(.].].(.(.(.]. X'.'.(.].}.}.(.'.]. X(.%.:.9.(.(.%.@.F.XX:.",
"q c f.%.(.].{.`.'.{.|.:.%.:.9.'.].$.:.9.{.(.%.%.9.(.'.$.P !.B.w.,X6Xq.(.{.].`.'.(.{. X'.{.(.{.}.}.'.'.]. X(.$.:.9.(.(.$.2.5X&X:.",
"0 r I %.(.].'.'._.{.].:.:.,.9.(.'.$.,.9.].(.%.:.9.(.(.$.T ] R :.OXy.:.(.{.].`.'.(.]. X'.].(.{.{.{.'.'.].}.9.%.:.9.(.9.+.+.] 0.%.",
"0 m H %.9.`.).(.(.{.'.:.:.:.9.9.(.:.,.9.(.9.:.:.,.(.(.$.+.$.$.:.%X{.9.9.].'.(.).).`.}.(.(.(.].'.].(.(.'.].9.:.:.,.9.9.+.$.$.9.%.",
"0 9 D $.9.(.9.9.(.{.(.:.:.:.:.,.9.:.:.:.9.,.:.:.:.,.7.+.+.o.+.:.$X(.,.:.(.(.9.0.(.(.].(.9.).'.(.(.9.(.'.'.9.:.:.:.,.,.+.$.o.9.%.",
"0 y A +.:.(.,.9.9.'.(.:.%.:.:.:.9.%.%.:.9.:.%.%.:.:.:.+.T e.' %.OXu.>.%.,.,.,.9.(.9.).,.9.(.(.9.9.7.(.(.'.9.$.%.:.:.:.+.+.r.y.$.",
"2 f ) H %.:.:.,.9.9.9.%.$.%.%.%.7.$.$.:.,.:.$.$.%.%.:.T E T.4.#.oXR.<.$.:.:.:.9.9.,.0.:.7.9.9.7.,.:.9.,.(.:.$.$.%.%.%.+.' R.u.+.",
"1 7 t H $.%.-.-.-.-.-...........-.......O.o.........o.H D / C +.XX5.T U O.O.o.-.-.-.,.-.O.-.-.-.-.O.-.-.,.O.........$.H L { &.U ",
"< 8 C _ <.q.C.D.G.=X=XF.F.F.F.F.=XF.F.F.G.G.F.F.F.F.F.V.5.] ` R XXq.r.C.G.P.F.G.G.*X=XG.G.G.=XP.=XG.P.G.=XG.F.F.C.r.q.] [ [ <.P ",
"* w ^ a.j.S.6XaXfXfXfXfXfXjXhXfXfXfXjXjXfXfXfXjXjXfXfXtX!.T.b.( B.S.!.uXgXfXhXjXhXfXfXfXjXjXfXhXfXhXjXfXfXfXfXfXtX!.H.b.k.k.f.g ",
"o u s.a - - l v.z.a p p x T.x p p c v.s.a p p x.c.s p p n U.l - p p.Y.p p p p.v.s.a p p T.s.d p s s.Y.p p p d c.z.u u - d.x.a # ",
"o u p.u 4 4 h z.p.& 4 = k c.p = 4 i z.^ = = = d.s.6 = = z x.i = w ^ v.6 4 = z z.x & 4 5 b.p.6 4 6 ^ v.5 4 = 6 g.a.= 5 = p.g.6 # ",
"3 3 8 m M N Z S M M M m m S m m N m V m M m M V V m M e e r 8 9 H V S M N N Z S M M D N S Z N M K Z S M N m m V V m M m r r m 0 ",
"0 0 m L $.$.$.U T $.$.U H H H T $.H H H ..T U H D T ..D N N M D :.H L T $.$.+.U +.$.:.$.T T $...:.L +.$.%.T H H D H $.H N N H m ",
"0 0 e D +.+.+.H H $.+.L H K D H +.H H D U H L D D H T D M S m N :.R D L +.+.T L L +.%.+.H H $...$.H H T $.H H D N D U D m S L m ",
"1 7 y M H H H N N H U D N m m D H N M M H D D M m N L N m ^ t m @.( V D U H D N D H +.L N K H H T N D H T D N M m M H M m ( A 9 ",
", u f e M N N m M N M m m e m m M m m m M m m m e m M e r l.j e ] z.S M D N M m M M D N m m N M D m m N N m m m e m M m r s.W 8 ",
"3 , 1 8 m m m 9 e m m e 9 8 8 9 m 9 9 8 e 9 9 9 8 9 9 8 0 y 2 0 Z t 8 e m m m e m e m m 9 e m m m e e m m 9 e 8 8 9 e 8 0 y 9 < ",
"f f j Q Q Q Q Q Q Q Q Q Q Q j Q Q Q Q Q Q Q Q Q j Q Q Q j j j Q ! Q Q Q Q Q Q Q Q Q ! Q Q Q Q Q ! Q Q Q ! Q Q Q Q Q Q Q j j Q j "
};
